<?xml version="1.0" encoding="UTF-8"?>
<svg id="Layer_1" data-name="Layer 1" xmlns="http://www.w3.org/2000/svg" xmlns:xlink="http://www.w3.org/1999/xlink" viewBox="0 0 86.08 103.52">
  <defs>
    <style>
      .cls-1 {
        fill: url(#linear-gradient);
      }

      .cls-2 {
        fill: url(#linear-gradient-3);
      }

      .cls-3 {
        fill: #fff;
        stroke: url(#linear-gradient-2);
        stroke-miterlimit: 10;
      }
    </style>
    <linearGradient id="linear-gradient" x1="3.66" y1="51.76" x2="86.08" y2="51.76" gradientUnits="userSpaceOnUse">
      <stop offset="0" stop-color="#007ab2"/>
      <stop offset="1" stop-color="#00cbcb"/>
    </linearGradient>
    <linearGradient id="linear-gradient-2" x1="-.5" x2="82.93" xlink:href="#linear-gradient"/>
    <linearGradient id="linear-gradient-3" x1="16.38" x2="68.3" xlink:href="#linear-gradient"/>
  </defs>
  <g>
    <path class="cls-1" d="m73.81,4.63c-23.68-8-45.04-4.04-57.7.05C8.91,7,4.03,13.7,3.98,21.26l-.32,42.84c-.02,2.56.51,5.11,1.59,7.43,2.91,6.27,10.75,18.22,31.04,29.73,5.32,3.02,11.86,3.02,17.17,0,20.29-11.51,28.13-23.46,31.04-29.73,1.08-2.33,1.61-4.87,1.59-7.43l-.32-42.95c-.06-7.49-4.86-14.13-11.95-16.52Z"/>
    <path class="cls-3" d="m70.15,4.63c-23.68-8-45.04-4.04-57.7.05C5.25,7,.37,13.7.32,21.26L0,64.1c-.02,2.56.51,5.11,1.59,7.43,2.91,6.27,10.75,18.22,31.04,29.73,5.32,3.02,11.86,3.02,17.17,0,20.29-11.51,28.13-23.46,31.04-29.73,1.08-2.33,1.61-4.87,1.59-7.43l-.32-42.95c-.06-7.49-4.86-14.13-11.95-16.52Z"/>
  </g>
  <path class="cls-2" d="m66.24,25.11c-.5-.25-12.42-6.2-23.9-6.2s-23.4,5.94-23.9,6.2c-1.27.64-2.05,1.92-2.05,3.34v30.21c0,3.65,1.44,7.34,4.27,10.95,2.06,2.63,4.88,5.25,8.39,7.79,5.81,4.21,11.53,6.78,11.77,6.89.48.22,1,.33,1.53.33s1.04-.11,1.52-.33c.24-.11,5.96-2.68,11.78-6.89,3.51-2.54,6.33-5.16,8.39-7.79,2.83-3.61,4.27-7.3,4.27-10.95v-30.21c0-1.42-.79-2.7-2.05-3.33Zm-11.74,50.71c-5.66,4.1-11.2,6.59-11.43,6.69-.23.1-.48.16-.73.16s-.5-.05-.73-.16c-.23-.1-5.78-2.6-11.43-6.69-.64-.47-1.25-.93-1.85-1.4.22-3.41,1.65-6.58,4.08-9.01,2.65-2.65,6.18-4.11,9.93-4.11s7.28,1.46,9.93,4.11c2.43,2.43,3.86,5.61,4.08,9.01-.59.47-1.2.94-1.85,1.4Zm-18.7-23.77c0-3.6,2.93-6.53,6.53-6.53s6.53,2.93,6.53,6.53-2.93,6.53-6.53,6.53-6.53-2.93-6.53-6.53Zm30.55,6.6c0,3.21-1.3,6.49-3.85,9.76-1.18,1.51-2.65,3.02-4.36,4.53-.5-3.36-2.05-6.46-4.5-8.9-2.17-2.17-4.86-3.63-7.79-4.28,2.92-1.34,4.96-4.28,4.96-7.7,0-4.67-3.8-8.48-8.48-8.48s-8.48,3.8-8.48,8.48c0,3.42,2.04,6.36,4.96,7.7-2.93.65-5.62,2.11-7.79,4.28-2.45,2.45-4,5.54-4.5,8.9-1.72-1.5-3.18-3.02-4.36-4.53-2.56-3.26-3.85-6.55-3.85-9.76v-30.21c0-.68.38-1.29.99-1.6.48-.24,12-5.99,23.03-5.99s22.54,5.74,23.03,5.99c.61.31.99.92.99,1.6v30.21Z"/>
</svg>