<?xml version="1.0" encoding="UTF-8"?>
<svg id="Layer_1" data-name="Layer 1" xmlns="http://www.w3.org/2000/svg" viewBox="0 0 94.15 119.14">
  <defs>
    <style>
      .cls-1 {
        fill: #fff;
      }
    </style>
  </defs>
  <g>
    <path class="cls-1" d="m47.08,119.14c-.96,0-1.9-.2-2.78-.59-.43-.19-10.81-4.87-21.35-12.49-6.36-4.6-11.48-9.35-15.21-14.12-5.14-6.55-7.74-13.24-7.74-19.87V17.3c0-2.58,1.43-4.91,3.74-6.07.91-.46,22.52-11.24,43.34-11.24s42.43,10.78,43.34,11.24c2.31,1.16,3.74,3.49,3.74,6.07v54.76c0,6.63-2.6,13.32-7.74,19.87-3.73,4.76-8.85,9.51-15.21,14.12-10.55,7.64-20.91,12.3-21.35,12.5-.88.39-1.81.59-2.77.59Zm0-115.57C27.1,3.57,6.23,13.98,5.35,14.43c-1.09.55-1.77,1.65-1.77,2.88v54.76c0,5.81,2.35,11.76,6.98,17.67,3.53,4.5,8.4,9.02,14.49,13.43,10.24,7.42,20.29,11.94,20.71,12.13.42.19.86.28,1.32.28s.9-.09,1.32-.28c.42-.19,10.46-4.71,20.71-12.13,6.09-4.41,10.97-8.93,14.49-13.43,4.63-5.91,6.98-11.85,6.98-17.67V17.3c0-1.22-.68-2.33-1.77-2.88-.88-.44-21.75-10.85-41.73-10.85Z"/>
    <path class="cls-1" d="m47.08,107.07c-.77,0-1.51-.16-2.22-.47-.35-.15-8.62-3.88-17.02-9.96-5.07-3.67-9.15-7.46-12.13-11.26-4.1-5.23-6.17-10.56-6.17-15.84V25.87c0-2.06,1.14-3.91,2.98-4.84.72-.37,17.95-8.96,34.55-8.96s33.83,8.59,34.55,8.96c1.84.93,2.98,2.78,2.98,4.84v43.66c0,5.29-2.08,10.62-6.17,15.84-2.98,3.8-7.06,7.58-12.13,11.26-8.41,6.09-16.68,9.81-17.02,9.96-.7.31-1.44.47-2.21.47Zm0-92.14c-15.93,0-32.57,8.3-33.27,8.65-.87.44-1.41,1.32-1.41,2.29v43.66c0,4.63,1.87,9.37,5.56,14.09,2.81,3.59,6.7,7.19,11.56,10.71,8.17,5.91,16.18,9.52,16.51,9.67.33.15.69.22,1.05.22s.72-.08,1.05-.22c.34-.15,8.34-3.75,16.52-9.67,4.86-3.52,8.74-7.12,11.56-10.71,3.69-4.71,5.56-9.45,5.56-14.09V25.87c0-.98-.54-1.86-1.41-2.29-.7-.35-17.34-8.65-33.27-8.65Z"/>
    <path class="cls-1" d="m47.08,95.89c-.59,0-1.16-.12-1.69-.36-.27-.12-6.59-2.97-13.01-7.62-3.88-2.81-7-5.7-9.27-8.61-3.13-4-4.72-8.07-4.72-12.11v-33.39c0-1.57.87-2.99,2.28-3.7.55-.28,13.73-6.85,26.42-6.85s25.87,6.57,26.42,6.85c1.41.71,2.28,2.13,2.28,3.7v33.39c0,4.04-1.59,8.12-4.72,12.11-2.28,2.9-5.4,5.8-9.27,8.61-6.43,4.66-12.75,7.5-13.02,7.62-.53.24-1.1.36-1.69.36Zm0-70.46c-12.18,0-24.91,6.35-25.44,6.62-.67.34-1.08,1.01-1.08,1.75v33.39c0,3.54,1.43,7.17,4.26,10.77,2.15,2.74,5.12,5.5,8.84,8.19,6.25,4.52,12.37,7.28,12.63,7.39.25.11.52.17.8.17s.55-.06.8-.17c.26-.12,6.38-2.87,12.63-7.39,3.71-2.69,6.69-5.44,8.84-8.19,2.82-3.6,4.26-7.23,4.26-10.77v-33.39c0-.75-.41-1.42-1.08-1.75-.54-.27-13.26-6.62-25.44-6.62Z"/>
  </g>
  <path class="cls-1" d="m58.94,42.42v5.74c-2.8-2.34-5.7-3.52-8.7-3.52-3.3,0-6.08,1.19-8.35,3.56-2.28,2.36-3.41,5.24-3.41,8.66s1.14,6.22,3.41,8.53c2.28,2.32,5.06,3.48,8.37,3.48,1.71,0,3.16-.28,4.35-.83.67-.28,1.36-.65,2.07-1.12s1.47-1.04,2.26-1.71v5.85c-2.77,1.57-5.69,2.35-8.74,2.35-4.59,0-8.51-1.6-11.76-4.81-3.23-3.23-4.85-7.13-4.85-11.7,0-4.09,1.35-7.74,4.06-10.95,3.33-3.93,7.64-5.89,12.92-5.89,2.89,0,5.67.78,8.37,2.35Z"/>
</svg>