<?xml version="1.0" encoding="UTF-8"?>
<svg id="Layer_1" data-name="Layer 1" xmlns="http://www.w3.org/2000/svg" viewBox="0 0 96.57 96.57">
  <defs>
    <style>
      .cls-1 {
        fill: #fff;
      }
    </style>
  </defs>
  <path class="cls-1" d="m78.59,20.55c-.96.06-1.94.18-2.93.35.17-.99.29-1.97.35-2.93.3-4.39-.83-8.41-3.25-11.62-2.22-2.95-5.44-5.04-9.08-5.91-5.51-1.31-11.21.31-15.24,4.34-.04.04-.08.08-.12.12-1.77-1.8-3.89-3.17-6.23-3.99-2.9-1.02-6.14-1.19-9.12-.48-2.91.69-5.55,2.16-7.64,4.26-.52.52-1,1.07-1.44,1.65-2.42,3.21-3.54,7.23-3.25,11.62.07,1,.19,2.01.37,3.04-1.02-.18-2.04-.3-3.04-.37-4.39-.29-8.41.83-11.62,3.25-.58.44-1.14.92-1.65,1.44-2.09,2.09-3.57,4.74-4.26,7.64-.71,2.98-.54,6.22.48,9.12.82,2.34,2.18,4.46,3.99,6.23-.04.04-.08.08-.12.12C.76,52.48-.86,58.17.44,63.69c.87,3.64,2.96,6.86,5.91,9.08,3.21,2.42,7.23,3.54,11.62,3.25.96-.06,1.94-.18,2.93-.35-.17.99-.29,1.97-.35,2.93-.3,4.39.83,8.41,3.25,11.62,2.22,2.95,5.44,5.05,9.08,5.91,5.51,1.31,11.21-.31,15.24-4.34.04-.04.08-.08.12-.12,1.77,1.8,3.89,3.17,6.23,3.99,2.9,1.02,6.14,1.19,9.12.48,2.91-.69,5.55-2.16,7.64-4.26h0c.52-.52,1-1.07,1.44-1.65,2.42-3.21,3.54-7.23,3.25-11.62-.07-1-.19-2.01-.37-3.04,1.02.18,2.04.3,3.04.37,4.39.29,8.41-.83,11.62-3.25.58-.44,1.14-.92,1.65-1.44,2.09-2.09,3.57-4.74,4.26-7.64.71-2.98.54-6.22-.48-9.12-.82-2.34-2.18-4.46-3.99-6.23.04-.04.08-.08.12-.12,4.03-4.03,5.65-9.73,4.34-15.24-.87-3.64-2.96-6.86-5.91-9.08-3.21-2.42-7.23-3.54-11.62-3.25Zm-54.08-2.84c-.23-3.45.62-6.57,2.47-9.03.33-.44.69-.86,1.08-1.24,1.59-1.59,3.59-2.7,5.8-3.23,2.27-.54,4.73-.41,6.94.37,2.34.82,4.4,2.36,5.96,4.46l1.56,2.09,1.56-2.09c.4-.54.84-1.05,1.31-1.52,3.07-3.07,7.41-4.31,11.6-3.31,2.76.66,5.2,2.24,6.88,4.47,1.85,2.46,2.71,5.58,2.47,9.03-.1,1.48-.35,3.01-.73,4.56l-23.06,23.06-22.95-22.95c-.05-.05-.11-.1-.17-.15-.38-1.53-.62-3.05-.72-4.52Zm-15.83,51.95c-2.23-1.68-3.81-4.12-4.47-6.88-1-4.19.24-8.53,3.31-11.6.46-.46.97-.9,1.52-1.31l2.09-1.56-2.09-1.56c-2.1-1.56-3.64-3.63-4.46-5.96-.78-2.21-.91-4.67-.37-6.94.52-2.21,1.64-4.21,3.23-5.8.39-.39.81-.75,1.24-1.08,2.46-1.85,5.58-2.71,9.03-2.47,1.47.1,2.98.34,4.52.72.05.06.1.12.15.17l22.95,22.95-23.06,23.06c-1.54.38-3.07.63-4.56.73-3.45.23-6.57-.62-9.03-2.47Zm63.36,9.18c.23,3.45-.62,6.57-2.47,9.03-.33.44-.69.86-1.08,1.24-1.59,1.59-3.59,2.7-5.8,3.23-2.27.54-4.73.41-6.94-.37-2.34-.82-4.4-2.36-5.96-4.46l-1.56-2.09-1.56,2.09c-.4.54-.84,1.05-1.31,1.52-3.07,3.07-7.41,4.31-11.6,3.31-2.76-.66-5.2-2.24-6.88-4.47-1.85-2.46-2.71-5.58-2.47-9.03.1-1.48.35-3.01.73-4.56l23.06-23.06,22.95,22.95c.05.05.11.1.17.15.38,1.53.62,3.05.72,4.52Zm20.29-45.07c1,4.19-.24,8.53-3.31,11.6-.46.46-.97.9-1.52,1.31l-2.09,1.56,2.09,1.56c2.1,1.56,3.64,3.63,4.46,5.96.78,2.21.91,4.67.37,6.94-.52,2.21-1.64,4.21-3.23,5.8-.39.39-.81.75-1.24,1.08-2.46,1.85-5.58,2.71-9.03,2.47-1.47-.1-2.98-.34-4.52-.72-.05-.06-.1-.12-.15-.17l-22.95-22.95,23.06-23.06c1.54-.38,3.07-.63,4.56-.73,3.45-.23,6.57.62,9.03,2.47,2.23,1.68,3.81,4.12,4.47,6.88Z"/>
</svg>