<?xml version="1.0" encoding="UTF-8"?>
<svg id="Layer_1" data-name="Layer 1" xmlns="http://www.w3.org/2000/svg" viewBox="0 0 32.03 33.4">
  <defs>
    <style>
      .cls-1 {
        fill: #007ab2;
      }
    </style>
  </defs>
  <path class="cls-1" d="m31.63,6.28c-.05-.02-.11-.03-.17-.03h-6.07V.56c0-.31-.25-.56-.56-.56H3.28C1.47,0,0,1.47,0,3.28v26.85c0,1.81,1.47,3.28,3.28,3.28h24.87s0,0,0,0c2.14,0,3.88-1.74,3.88-3.88V6.82c0-.25-.17-.47-.39-.54ZM3.28,32.28c-1.19,0-2.15-.97-2.15-2.15V3.28c0-1.19.97-2.15,2.15-2.15h21v28.4c0,1.04.43,2.03,1.15,2.75H3.28Zm24.88,0s0,0,0,0h0c-.48,0-.96-.13-1.38-.37-.85-.49-1.37-1.4-1.37-2.38V7.38h5.51v22.15c0,1.52-1.23,2.75-2.75,2.75Z"/>
  <path class="cls-1" d="m28.15,10.03c-.31,0-.56.25-.56.56v18.49c0,.31.25.56.56.56s.56-.25.56-.56V10.59c0-.31-.25-.56-.56-.56Z"/>
  <path class="cls-1" d="m4.44,13.48h8.47c.31,0,.56-.25.56-.56V4.44c0-.31-.25-.56-.56-.56H4.44c-.31,0-.56.25-.56.56v8.47c0,.31.25.56.56.56Zm.56-8.47h7.35v7.35h-7.35v-7.35Z"/>
  <path class="cls-1" d="m20.96,15.69H4.44c-.31,0-.56.25-.56.56s.25.56.56.56h16.52c.31,0,.56-.25.56-.56s-.25-.56-.56-.56Z"/>
  <path class="cls-1" d="m20.96,5.68h-4.93c-.31,0-.56.25-.56.56s.25.56.56.56h4.93c.31,0,.56-.25.56-.56s-.25-.56-.56-.56Z"/>
  <path class="cls-1" d="m20.96,10.55h-4.93c-.31,0-.56.25-.56.56s.25.56.56.56h4.93c.31,0,.56-.25.56-.56s-.25-.56-.56-.56Z"/>
  <path class="cls-1" d="m20.96,8.12h-4.93c-.31,0-.56.25-.56.56s.25.56.56.56h4.93c.31,0,.56-.25.56-.56s-.25-.56-.56-.56Z"/>
  <path class="cls-1" d="m20.96,22.36H4.44c-.31,0-.56.25-.56.56s.25.56.56.56h16.52c.31,0,.56-.25.56-.56s-.25-.56-.56-.56Z"/>
  <path class="cls-1" d="m20.96,25.7H4.44c-.31,0-.56.25-.56.56s.25.56.56.56h16.52c.31,0,.56-.25.56-.56s-.25-.56-.56-.56Z"/>
  <path class="cls-1" d="m20.96,19.02H4.44c-.31,0-.56.25-.56.56s.25.56.56.56h16.52c.31,0,.56-.25.56-.56s-.25-.56-.56-.56Z"/>
</svg>