<?xml version="1.0" encoding="UTF-8"?>
<svg id="Layer_1" data-name="Layer 1" xmlns="http://www.w3.org/2000/svg" xmlns:xlink="http://www.w3.org/1999/xlink" viewBox="0 0 86.08 103.52">
  <defs>
    <style>
      .cls-1 {
        fill: url(#linear-gradient);
      }

      .cls-2 {
        fill: url(#linear-gradient-3);
      }

      .cls-3 {
        fill: url(#linear-gradient-4);
      }

      .cls-4 {
        fill: url(#linear-gradient-5);
      }

      .cls-5 {
        fill: #fff;
        stroke: url(#linear-gradient-2);
        stroke-miterlimit: 10;
      }
    </style>
    <linearGradient id="linear-gradient" x1="3.66" y1="51.76" x2="86.08" y2="51.76" gradientUnits="userSpaceOnUse">
      <stop offset="0" stop-color="#007ab2"/>
      <stop offset="1" stop-color="#00cbcb"/>
    </linearGradient>
    <linearGradient id="linear-gradient-2" x1="-.5" x2="82.93" xlink:href="#linear-gradient"/>
    <linearGradient id="linear-gradient-3" x1="19.28" y1="49.44" x2="62.16" y2="49.44" xlink:href="#linear-gradient"/>
    <linearGradient id="linear-gradient-4" x1="13.64" y1="49.44" x2="67.8" y2="49.44" xlink:href="#linear-gradient"/>
    <linearGradient id="linear-gradient-5" x1="32.53" y1="50.82" x2="51.75" y2="50.82" xlink:href="#linear-gradient"/>
  </defs>
  <g>
    <path class="cls-1" d="m73.81,4.63c-23.68-8-45.04-4.04-57.7.05C8.91,7,4.03,13.7,3.98,21.26l-.32,42.84c-.02,2.56.51,5.11,1.59,7.43,2.91,6.27,10.75,18.22,31.04,29.73,5.32,3.02,11.86,3.02,17.17,0,20.29-11.51,28.13-23.46,31.04-29.73,1.08-2.33,1.61-4.87,1.59-7.43l-.32-42.95c-.06-7.49-4.86-14.13-11.95-16.52Z"/>
    <path class="cls-5" d="m70.15,4.63c-23.68-8-45.04-4.04-57.7.05C5.25,7,.37,13.7.32,21.26L0,64.1c-.02,2.56.51,5.11,1.59,7.43,2.91,6.27,10.75,18.22,31.04,29.73,5.32,3.02,11.86,3.02,17.17,0,20.29-11.51,28.13-23.46,31.04-29.73,1.08-2.33,1.61-4.87,1.59-7.43l-.32-42.95c-.06-7.49-4.86-14.13-11.95-16.52Z"/>
  </g>
  <g>
    <g>
      <path class="cls-2" d="m52.63,31.61c-3.53-2.36-7.65-3.61-11.91-3.61-11.82,0-21.44,9.62-21.44,21.44s9.62,21.44,21.44,21.44,21.44-9.62,21.44-21.44c0-4.24-1.24-8.34-3.58-11.86-.35-.52-1.05-.66-1.56-.32-.52.35-.66,1.05-.32,1.56,2.09,3.15,3.2,6.81,3.2,10.61,0,10.58-8.61,19.18-19.18,19.18s-19.18-8.61-19.18-19.18,8.61-19.18,19.18-19.18c3.82,0,7.5,1.12,10.65,3.23.52.35,1.22.21,1.57-.31.35-.52.21-1.22-.31-1.57Z"/>
      <path class="cls-3" d="m40.72,22.36c-14.93,0-27.08,12.15-27.08,27.08,0,6.02,1.93,11.72,5.59,16.48.38.49,1.09.59,1.58.21.49-.38.59-1.09.21-1.58-3.35-4.36-5.13-9.59-5.13-15.11,0-13.69,11.14-24.83,24.83-24.83s24.83,11.14,24.83,24.83-11.14,24.83-24.83,24.83c-5.52,0-10.75-1.77-15.11-5.13-.49-.38-1.2-.28-1.58.21-.38.49-.29,1.2.21,1.58,4.76,3.66,10.46,5.59,16.49,5.59,14.93,0,27.08-12.15,27.08-27.08s-12.15-27.08-27.08-27.08Z"/>
    </g>
    <path class="cls-4" d="m38.55,58.19l-5.41-5.41c-.82-.82-.82-2.14,0-2.95h0c.82-.82,2.14-.82,2.95,0l3.05,3.05,9.04-9.04c.82-.82,2.14-.82,2.95,0h0c.82.82.82,2.14,0,2.95l-11.41,11.41c-.33.33-.86.33-1.18,0Z"/>
  </g>
</svg>