<?xml version="1.0" encoding="UTF-8"?>
<svg id="Layer_1" data-name="Layer 1" xmlns="http://www.w3.org/2000/svg" viewBox="0 0 147.85 110.58">
  <defs>
    <style>
      .cls-1 {
        fill: #fff;
      }
    </style>
  </defs>
  <g>
    <path class="cls-1" d="m107.58,28.33h-1.97v-2.76c0-2.78-2.26-5.04-5.04-5.04h-.31c-2.78,0-5.04,2.26-5.04,5.04v2.76h-1.97c-.65,0-1.17.53-1.17,1.17v11.25c0,.65.53,1.17,1.17,1.17h14.33c.65,0,1.17-.53,1.17-1.17v-11.25c0-.65-.53-1.17-1.17-1.17Zm-10.92-2.76c0-1.99,1.62-3.61,3.61-3.61h.31c1.99,0,3.61,1.62,3.61,3.61v2.76h-7.52v-2.76Zm10.67,14.92h-13.81v-10.73h13.81v10.73Z"/>
    <path class="cls-1" d="m99.41,35.07v2.78c0,.58.45,1.05,1.01,1.05s1.01-.47,1.01-1.05v-2.78c.61-.36.99-1.01.99-1.72,0-1.1-.89-1.99-1.99-1.99s-1.99.89-1.99,1.99c0,.71.38,1.36.99,1.72Zm1.01-3.14c.78,0,1.42.64,1.42,1.42,0,.53-.29,1.01-.75,1.26l-.23.12v3.13c0,.26-.19.48-.43.48s-.43-.21-.43-.48v-3.13l-.23-.12c-.47-.25-.75-.73-.75-1.26,0-.78.64-1.42,1.42-1.42Z"/>
  </g>
  <g>
    <g>
      <path class="cls-1" d="m145.85,0H55.9C54.8,0,53.91.9,53.91,2v66.47c0,1.1.9,2,2,2h35.02l-4.34,6.32h-7.2c-.57,0-1.03.46-1.03,1.03v5.44c0,.57.46,1.03,1.03,1.03h42.93c.57,0,1.03-.46,1.03-1.03v-5.44c0-.57-.46-1.03-1.03-1.03h-7.33c-.04-.18-.11-.35-.22-.51l-3.99-5.81h35.08c1.1,0,2-.9,2-2V2C147.85.9,146.95,0,145.85,0Zm-.86,2.85v57.72H56.76V2.85h88.24Zm-23.43,79.66h-41.44v-3.94h41.44v3.94Zm-8.62-5.72h-24.2l4.34-6.32h15.52l4.34,6.32Zm-56.19-9.17v-5.26h88.24v5.26H56.76Z"/>
      <g>
        <path class="cls-1" d="m61.03,78.96h-17.33c-.36,0-.66.29-.66.66v30.31c0,.36.29.66.66.66h17.33c.36,0,.66-.29.66-.66v-30.31c0-.36-.29-.66-.66-.66Zm-17.05,4.48h16.77v22.25h-16.77v-22.25Zm16.77-3.54v2.6h-16.77v-2.6h16.77Zm-16.77,29.75v-3.02h16.77v3.02h-16.77Z"/>
        <path class="cls-1" d="m52.37,107.08c-.59,0-1.07.48-1.07,1.07s.48,1.07,1.07,1.07,1.07-.48,1.07-1.07-.48-1.07-1.07-1.07Zm0,1.91c-.46,0-.84-.38-.84-.84s.38-.84.84-.84.84.38.84.84-.38.84-.84.84Z"/>
        <path class="cls-1" d="m49.71,81.79h5.33c.31,0,.56-.25.56-.56s-.25-.56-.56-.56h-5.33c-.31,0-.56.25-.56.56s.25.56.56.56Zm0-.89h5.33c.18,0,.33.15.33.33s-.15.33-.33.33h-5.33c-.18,0-.33-.15-.33-.33s.15-.33.33-.33Z"/>
        <g>
          <path class="cls-1" d="m55.3,93.56h-.81v-1.13c0-1.14-.92-2.06-2.06-2.06h-.12c-1.14,0-2.06.92-2.06,2.06v1.13h-.81c-.26,0-.48.22-.48.48v4.6c0,.26.22.48.48.48h5.86c.26,0,.48-.22.48-.48v-4.6c0-.26-.22-.48-.48-.48Zm-4.47-1.13c0-.81.66-1.48,1.48-1.48h.12c.81,0,1.48.66,1.48,1.48v1.13h-3.08v-1.13Zm4.36,6.11h-5.65v-4.39h5.65v4.39Z"/>
          <path class="cls-1" d="m51.96,96.32v1.14c0,.24.18.43.41.43s.41-.19.41-.43v-1.14c.25-.15.4-.41.4-.7,0-.45-.37-.82-.82-.82s-.82.37-.82.82c0,.29.15.56.4.7Zm.41-1.29c.32,0,.58.26.58.58,0,.22-.12.41-.31.51l-.1.05v1.28c0,.11-.08.2-.18.2s-.18-.09-.18-.2v-1.28l-.1-.05c-.19-.1-.31-.3-.31-.51,0-.32.26-.58.58-.58Z"/>
        </g>
      </g>
      <g>
        <g>
          <path class="cls-1" d="m37.02,42.15H1.47C.66,42.15,0,42.81,0,43.62v48.1c0,.81.66,1.47,1.47,1.47h35.55c.81,0,1.47-.66,1.47-1.47v-48.1c0-.81-.66-1.47-1.47-1.47Zm-.32,1.8v5.61H1.8v-5.61h34.9Zm0,7.4v32.68H1.8v-32.68h34.9ZM1.8,91.39v-5.57h34.9v5.57H1.8Z"/>
          <path class="cls-1" d="m14.86,47.9h8.78c.51,0,.93-.42.93-.93s-.42-.93-.93-.93h-8.78c-.51,0-.93.42-.93.93s.42.93.93.93Zm0-1.47h8.78c.3,0,.54.24.54.54s-.24.54-.54.54h-8.78c-.3,0-.54-.24-.54-.54s.24-.54.54-.54Z"/>
        </g>
        <path class="cls-1" d="m19.25,87.04c-.93,0-1.69.76-1.69,1.69s.76,1.69,1.69,1.69,1.69-.76,1.69-1.69-.76-1.69-1.69-1.69Zm0,3.02c-.73,0-1.32-.59-1.32-1.32s.59-1.32,1.32-1.32,1.32.59,1.32,1.32-.59,1.32-1.32,1.32Z"/>
      </g>
    </g>
    <g>
      <path class="cls-1" d="m24.3,65.05h-1.39v-1.94c0-1.96-1.59-3.55-3.55-3.55h-.22c-1.96,0-3.55,1.59-3.55,3.55v1.94h-1.39c-.46,0-.83.37-.83.83v7.93c0,.46.37.83.83.83h10.1c.46,0,.83-.37.83-.83v-7.93c0-.46-.37-.83-.83-.83Zm-7.7-1.94c0-1.4,1.14-2.54,2.54-2.54h.22c1.4,0,2.54,1.14,2.54,2.54v1.94h-5.3v-1.94Zm7.51,10.51h-9.73v-7.56h9.73v7.56Z"/>
      <path class="cls-1" d="m18.54,69.8v1.96c0,.41.32.74.71.74s.71-.33.71-.74v-1.96c.43-.25.7-.71.7-1.21,0-.77-.63-1.4-1.4-1.4s-1.4.63-1.4,1.4c0,.5.27.96.7,1.21Zm.71-2.21c.55,0,1,.45,1,1,0,.37-.2.71-.53.88l-.16.09v2.2c0,.19-.14.34-.31.34s-.31-.15-.31-.34v-2.2l-.16-.09c-.33-.17-.53-.51-.53-.88,0-.55.45-1,1-1Z"/>
    </g>
  </g>
</svg>