<?xml version="1.0" encoding="UTF-8"?>
<svg id="Layer_1" data-name="Layer 1" xmlns="http://www.w3.org/2000/svg" xmlns:xlink="http://www.w3.org/1999/xlink" viewBox="0 0 143.44 173.54">
  <defs>
    <style>
      .cls-1 {
        fill: url(#linear-gradient);
      }

      .cls-2 {
        fill: #fff;
      }

      .cls-3 {
        fill: url(#linear-gradient-3);
      }

      .cls-4 {
        fill: url(#linear-gradient-4);
      }

      .cls-5 {
        fill: url(#linear-gradient-2);
      }

      .cls-6 {
        fill: url(#linear-gradient-5);
      }
    </style>
    <linearGradient id="linear-gradient" x1="5.78" y1="86.77" x2="143.44" y2="86.77" gradientUnits="userSpaceOnUse">
      <stop offset="0" stop-color="#007ab2"/>
      <stop offset="1" stop-color="#00d3d3"/>
    </linearGradient>
    <linearGradient id="linear-gradient-2" x1="0" y1="86.77" x2="138.31" y2="86.77" xlink:href="#linear-gradient"/>
    <linearGradient id="linear-gradient-3" x1="37.32" y1="86.77" x2="106.12" y2="86.77" gradientUnits="userSpaceOnUse">
      <stop offset="0" stop-color="#007ab2"/>
      <stop offset="1" stop-color="#00dada"/>
    </linearGradient>
    <linearGradient id="linear-gradient-4" x1="28.26" y1="86.77" x2="115.18" y2="86.77" xlink:href="#linear-gradient-3"/>
    <linearGradient id="linear-gradient-5" x1="58.58" y1="88.99" x2="89.42" y2="88.99" xlink:href="#linear-gradient-3"/>
  </defs>
  <g>
    <path class="cls-1" d="m122.94,8.05c-39.55-13.37-75.22-6.75-96.37.08-12.02,3.88-20.17,15.06-20.26,27.69l-.53,71.55c-.03,4.28.85,8.53,2.65,12.41,4.85,10.47,17.95,30.43,51.84,49.65,8.88,5.04,19.8,5.04,28.68,0,33.88-19.22,46.98-39.17,51.84-49.65,1.8-3.89,2.68-8.13,2.65-12.41l-.53-71.72c-.09-12.51-8.11-23.59-19.96-27.6Z"/>
    <g>
      <path class="cls-2" d="m117.49,8.05c-39.55-13.37-75.22-6.75-96.37.08C9.1,12.01.95,23.2.86,35.83L.33,107.38c-.03,4.28.85,8.53,2.65,12.41,4.85,10.47,17.95,30.43,51.84,49.65,8.88,5.04,19.8,5.04,28.68,0,33.88-19.22,46.98-39.17,51.84-49.65,1.8-3.89,2.68-8.13,2.65-12.41l-.53-71.72c-.09-12.51-8.11-23.59-19.96-27.6Z"/>
      <path class="cls-5" d="m69.15,173.54c-5.08,0-10.09-1.32-14.5-3.82-14.95-8.48-27.35-17.95-36.88-28.16-8.32-8.92-12.8-16.68-15.09-21.63C.9,116.07-.03,111.73,0,107.37L.53,35.82c.1-12.82,8.33-24.07,20.48-28C34.5,3.47,48.42.91,62.38.2c18.96-.96,37.54,1.58,55.21,7.55,11.98,4.05,20.09,15.26,20.19,27.9l.53,71.72c.03,4.36-.9,8.7-2.68,12.55-2.29,4.95-6.77,12.71-15.09,21.63-9.53,10.21-21.93,19.69-36.88,28.16-4.41,2.5-9.42,3.82-14.5,3.82ZM70.19.65c-2.58,0-5.17.07-7.77.2-13.91.71-27.77,3.26-41.2,7.6C9.32,12.28,1.27,23.29,1.18,35.83l-.53,71.55c-.03,4.26.88,8.51,2.62,12.28,11.04,23.81,37.13,41.24,51.7,49.5,4.31,2.44,9.21,3.74,14.18,3.74s9.87-1.29,14.18-3.74c14.57-8.26,40.66-25.69,51.7-49.5,1.75-3.77,2.65-8.01,2.62-12.28l-.53-71.72c-.09-12.36-8.03-23.33-19.74-27.29C102.21,3.23,86.37.65,70.19.65Z"/>
    </g>
  </g>
  <g>
    <g>
      <path class="cls-3" d="m90.83,58.16c-5.66-3.79-12.27-5.79-19.11-5.79-18.97,0-34.4,15.43-34.4,34.4s15.43,34.4,34.4,34.4,34.4-15.43,34.4-34.4c0-6.81-1.99-13.39-5.74-19.03-.56-.84-1.68-1.06-2.51-.51-.83.56-1.06,1.68-.51,2.51,3.36,5.05,5.14,10.94,5.14,17.03,0,16.97-13.81,30.78-30.78,30.78s-30.78-13.81-30.78-30.78,13.81-30.78,30.78-30.78c6.12,0,12.03,1.79,17.1,5.18.83.56,1.96.33,2.51-.5.56-.83.33-1.96-.5-2.51Z"/>
      <path class="cls-4" d="m71.72,43.31c-23.96,0-43.46,19.5-43.46,43.46,0,9.66,3.1,18.81,8.97,26.45.61.79,1.74.95,2.54.33.79-.61.94-1.75.33-2.54-5.38-7-8.22-15.39-8.22-24.24,0-21.97,17.87-39.84,39.84-39.84s39.84,17.87,39.84,39.84-17.87,39.84-39.84,39.84c-8.86,0-17.24-2.85-24.25-8.23-.79-.61-1.93-.46-2.54.33-.61.79-.46,1.93.33,2.54,7.64,5.87,16.79,8.98,26.45,8.98,23.96,0,43.46-19.5,43.46-43.46s-19.5-43.46-43.46-43.46Z"/>
    </g>
    <path class="cls-6" d="m68.24,100.8l-8.68-8.68c-1.31-1.31-1.31-3.43,0-4.74h0c1.31-1.31,3.43-1.31,4.74,0l4.89,4.89,14.51-14.51c1.31-1.31,3.43-1.31,4.74,0h0c1.31,1.31,1.31,3.43,0,4.74l-18.3,18.3c-.52.52-1.37.52-1.9,0Z"/>
  </g>
</svg>