<?xml version="1.0" encoding="UTF-8"?>
<svg id="Layer_1" data-name="Layer 1" xmlns="http://www.w3.org/2000/svg" xmlns:xlink="http://www.w3.org/1999/xlink" viewBox="0 0 143.44 173.54">
  <defs>
    <style>
      .cls-1 {
        fill: url(#linear-gradient);
      }

      .cls-2 {
        fill: #fff;
      }

      .cls-3 {
        fill: url(#linear-gradient-3);
      }

      .cls-4 {
        fill: url(#linear-gradient-2);
      }
    </style>
    <linearGradient id="linear-gradient" x1="5.78" y1="86.77" x2="143.44" y2="86.77" gradientUnits="userSpaceOnUse">
      <stop offset="0" stop-color="#007ab2"/>
      <stop offset="1" stop-color="#00d3d3"/>
    </linearGradient>
    <linearGradient id="linear-gradient-2" x1="0" y1="86.77" x2="138.31" y2="86.77" xlink:href="#linear-gradient"/>
    <linearGradient id="linear-gradient-3" x1="28.43" y1="86.77" x2="115.01" y2="86.77" gradientUnits="userSpaceOnUse">
      <stop offset="0" stop-color="#007ab2"/>
      <stop offset="1" stop-color="#00dada"/>
    </linearGradient>
  </defs>
  <g>
    <path class="cls-1" d="m122.94,8.05c-39.55-13.37-75.22-6.75-96.37.08-12.02,3.88-20.17,15.06-20.26,27.69l-.53,71.55c-.03,4.28.85,8.53,2.65,12.41,4.85,10.47,17.95,30.43,51.84,49.65,8.88,5.04,19.8,5.04,28.68,0,33.88-19.22,46.98-39.17,51.84-49.65,1.8-3.89,2.68-8.13,2.65-12.41l-.53-71.72c-.09-12.51-8.11-23.59-19.96-27.6Z"/>
    <g>
      <path class="cls-2" d="m117.49,8.05c-39.55-13.37-75.22-6.75-96.37.08C9.1,12.01.95,23.2.86,35.83L.33,107.38c-.03,4.28.85,8.53,2.65,12.41,4.85,10.47,17.95,30.43,51.84,49.65,8.88,5.04,19.8,5.04,28.68,0,33.88-19.22,46.98-39.17,51.84-49.65,1.8-3.89,2.68-8.13,2.65-12.41l-.53-71.72c-.09-12.51-8.11-23.59-19.96-27.6Z"/>
      <path class="cls-4" d="m69.15,173.54c-5.08,0-10.09-1.32-14.5-3.82-14.95-8.48-27.35-17.95-36.88-28.16-8.32-8.92-12.8-16.68-15.09-21.63C.9,116.07-.03,111.73,0,107.37L.53,35.82c.1-12.82,8.33-24.07,20.48-28C34.5,3.47,48.42.91,62.38.2c18.96-.96,37.54,1.58,55.21,7.55,11.98,4.05,20.09,15.26,20.19,27.9l.53,71.72c.03,4.36-.9,8.7-2.68,12.55-2.29,4.95-6.77,12.71-15.09,21.63-9.53,10.21-21.93,19.69-36.88,28.16-4.41,2.5-9.42,3.82-14.5,3.82ZM70.19.65c-2.58,0-5.17.07-7.77.2-13.91.71-27.77,3.26-41.2,7.6C9.32,12.28,1.27,23.29,1.18,35.83l-.53,71.55c-.03,4.26.88,8.51,2.62,12.28,11.04,23.81,37.13,41.24,51.7,49.5,4.31,2.44,9.21,3.74,14.18,3.74s9.87-1.29,14.18-3.74c14.57-8.26,40.66-25.69,51.7-49.5,1.75-3.77,2.65-8.01,2.62-12.28l-.53-71.72c-.09-12.36-8.03-23.33-19.74-27.29C102.21,3.23,86.37.65,70.19.65Z"/>
    </g>
  </g>
  <path class="cls-3" d="m111.58,42.32c-.84-.42-20.71-10.33-39.86-10.33s-39.03,9.91-39.86,10.33c-2.11,1.06-3.43,3.2-3.43,5.56v50.38c0,6.09,2.39,12.24,7.12,18.27,3.43,4.38,8.14,8.75,13.99,12.98,9.69,7.02,19.24,11.31,19.64,11.49.81.36,1.66.54,2.55.54s1.74-.18,2.54-.54c.4-.18,9.93-4.47,19.64-11.49,5.85-4.24,10.56-8.6,13.99-12.98,4.72-6.03,7.12-12.17,7.12-18.27v-50.38c0-2.37-1.31-4.5-3.43-5.56Zm-19.58,84.57c-9.44,6.83-18.67,10.99-19.06,11.16-.39.17-.8.26-1.22.26s-.84-.09-1.22-.26c-.39-.17-9.64-4.34-19.06-11.16-1.07-.77-2.09-1.55-3.08-2.33,0,0,0,0,0,0,.36-5.68,2.75-10.97,6.81-15.04,4.42-4.42,10.3-6.86,16.55-6.86s12.13,2.44,16.55,6.86c4.06,4.06,6.45,9.35,6.81,15.04,0,0,0,0,0,0-.99.78-2.01,1.56-3.08,2.33Zm-20.28-28.74c-6.01,0-10.9-4.89-10.9-10.9s4.89-10.9,10.9-10.9,10.9,4.89,10.9,10.9-4.89,10.9-10.9,10.9Zm40.05.12c0,5.35-2.16,10.83-6.43,16.27-1.97,2.52-4.41,5.04-7.27,7.55-.84-5.6-3.43-10.77-7.51-14.85-3.61-3.61-8.07-6.05-12.93-7.15,4.85-2.24,8.22-7.15,8.22-12.83,0-7.79-6.34-14.13-14.13-14.13s-14.13,6.34-14.13,14.13c0,5.68,3.37,10.59,8.22,12.83-4.86,1.1-9.32,3.54-12.93,7.15-4.08,4.08-6.67,9.25-7.51,14.85-2.86-2.5-5.3-5.03-7.27-7.55-4.26-5.44-6.43-10.92-6.43-16.27v-50.38c0-1.14.63-2.16,1.65-2.67.81-.41,20.02-9.99,38.41-9.99s37.6,9.58,38.41,9.99c1.01.51,1.64,1.53,1.64,2.67v50.38Z"/>
</svg>