<?xml version="1.0" encoding="UTF-8"?>
<svg id="Layer_1" data-name="Layer 1" xmlns="http://www.w3.org/2000/svg" xmlns:xlink="http://www.w3.org/1999/xlink" viewBox="0 0 143.44 173.54">
  <defs>
    <style>
      .cls-1 {
        fill: url(#linear-gradient);
      }

      .cls-2 {
        fill: #fff;
      }

      .cls-3 {
        fill: url(#linear-gradient-3);
      }

      .cls-4 {
        fill: url(#linear-gradient-4);
      }

      .cls-5 {
        fill: url(#linear-gradient-2);
      }

      .cls-6 {
        fill: url(#linear-gradient-5);
      }
    </style>
    <linearGradient id="linear-gradient" x1="5.78" y1="86.77" x2="143.44" y2="86.77" gradientUnits="userSpaceOnUse">
      <stop offset="0" stop-color="#007ab2"/>
      <stop offset="1" stop-color="#00d3d3"/>
    </linearGradient>
    <linearGradient id="linear-gradient-2" x1="0" y1="86.77" x2="138.31" y2="86.77" xlink:href="#linear-gradient"/>
    <linearGradient id="linear-gradient-3" x1="16.92" y1="81.91" x2="123.32" y2="81.91" gradientUnits="userSpaceOnUse">
      <stop offset="0" stop-color="#007ab2"/>
      <stop offset="1" stop-color="#00dada"/>
    </linearGradient>
    <linearGradient id="linear-gradient-4" x1="60.82" y1="81.91" x2="79.41" y2="81.91" xlink:href="#linear-gradient-3"/>
    <linearGradient id="linear-gradient-5" x1="49.56" y1="81.91" x2="90.68" y2="81.91" xlink:href="#linear-gradient-3"/>
  </defs>
  <g>
    <path class="cls-1" d="m122.94,8.05c-39.55-13.37-75.22-6.75-96.37.08-12.02,3.88-20.17,15.06-20.26,27.69l-.53,71.55c-.03,4.28.85,8.53,2.65,12.41,4.85,10.47,17.95,30.43,51.84,49.65,8.88,5.04,19.8,5.04,28.68,0,33.88-19.22,46.98-39.17,51.84-49.65,1.8-3.89,2.68-8.13,2.65-12.41l-.53-71.72c-.09-12.51-8.11-23.59-19.96-27.6Z"/>
    <g>
      <path class="cls-2" d="m117.49,8.05c-39.55-13.37-75.22-6.75-96.37.08C9.1,12.01.95,23.2.86,35.83L.33,107.38c-.03,4.28.85,8.53,2.65,12.41,4.85,10.47,17.95,30.43,51.84,49.65,8.88,5.04,19.8,5.04,28.68,0,33.88-19.22,46.98-39.17,51.84-49.65,1.8-3.89,2.68-8.13,2.65-12.41l-.53-71.72c-.09-12.51-8.11-23.59-19.96-27.6Z"/>
      <path class="cls-5" d="m69.15,173.54c-5.08,0-10.09-1.32-14.5-3.82-14.95-8.48-27.35-17.95-36.88-28.16-8.32-8.92-12.8-16.68-15.09-21.63C.9,116.07-.03,111.73,0,107.37L.53,35.82c.1-12.82,8.33-24.07,20.48-28C34.5,3.47,48.42.91,62.38.2c18.96-.96,37.54,1.58,55.21,7.55,11.98,4.05,20.09,15.26,20.19,27.9l.53,71.72c.03,4.36-.9,8.7-2.68,12.55-2.29,4.95-6.77,12.71-15.09,21.63-9.53,10.21-21.93,19.69-36.88,28.16-4.41,2.5-9.42,3.82-14.5,3.82ZM70.19.65c-2.58,0-5.17.07-7.77.2-13.91.71-27.77,3.26-41.2,7.6C9.32,12.28,1.27,23.29,1.18,35.83l-.53,71.55c-.03,4.26.88,8.51,2.62,12.28,11.04,23.81,37.13,41.24,51.7,49.5,4.31,2.44,9.21,3.74,14.18,3.74s9.87-1.29,14.18-3.74c14.57-8.26,40.66-25.69,51.7-49.5,1.75-3.77,2.65-8.01,2.62-12.28l-.53-71.72c-.09-12.36-8.03-23.33-19.74-27.29C102.21,3.23,86.37.65,70.19.65Z"/>
    </g>
  </g>
  <g>
    <path class="cls-3" d="m112.63,57.44h-5.03c-.51-2.23-1.3-4.41-2.37-6.52-1.94-3.83-4.71-7.27-8.24-10.21-3.5-2.93-7.58-5.22-12.11-6.82-4.68-1.65-9.65-2.49-14.76-2.49s-10.09.84-14.76,2.49c-4.53,1.6-8.61,3.9-12.11,6.82-3.53,2.94-6.3,6.38-8.24,10.21-1.07,2.11-1.86,4.29-2.36,6.52h-5.03c-5.89,0-10.69,4.79-10.69,10.69v19.59c0,5.89,4.79,10.69,10.69,10.69h5.96c.89,0,1.61-.72,1.61-1.61v-33.26c0-15.94,15.67-28.91,34.94-28.91s34.94,12.97,34.94,28.91v28.78c0,3.3-.67,6.53-1.98,9.61-1.28,2.99-3.13,5.78-5.52,8.28-4.63,4.85-11.07,8.38-18.22,10-1.15-4.01-4.85-6.96-9.22-6.96-5.29,0-9.59,4.3-9.59,9.59s4.3,9.59,9.59,9.59,9.26-3.98,9.57-8.99c3.89-.84,7.57-2.19,10.96-4.02,3.52-1.89,6.63-4.24,9.24-6.98,2.66-2.78,4.73-5.89,6.15-9.24.67-1.56,1.18-3.16,1.55-4.78h5.04c5.89,0,10.69-4.79,10.69-10.69v-19.59c0-5.89-4.79-10.69-10.69-10.69Zm-80.68,6.09v31.65h-4.35c-4.11,0-7.46-3.35-7.46-7.46v-19.59c0-4.11,3.35-7.46,7.46-7.46h4.35v2.86Zm38.16,65.67c-3.51,0-6.36-2.85-6.36-6.36s2.85-6.36,6.36-6.36,6.36,2.85,6.36,6.36-2.85,6.36-6.36,6.36Zm49.97-41.48c0,4.11-3.35,7.46-7.46,7.46h-4.35v-34.51h4.35c4.11,0,7.46,3.35,7.46,7.46v19.59Z"/>
    <path class="cls-4" d="m79.41,81.91c0-5.13-4.17-9.3-9.3-9.3s-9.3,4.17-9.3,9.3,4.17,9.3,9.3,9.3,9.3-4.17,9.3-9.3Zm-15.37,0c0-3.35,2.72-6.07,6.07-6.07s6.07,2.72,6.07,6.07-2.72,6.07-6.07,6.07-6.07-2.72-6.07-6.07Z"/>
    <path class="cls-6" d="m67.14,102.16c.37-.27.6-.68.65-1.14.12-1.2,1.12-2.1,2.33-2.1s2.21.9,2.33,2.1c.05.45.28.87.65,1.14.28.2.61.31.96.31.11,0,.22-.01.33-.03,2.59-.53,5.03-1.54,7.24-3,.38-.25.64-.65.71-1.1.07-.45-.06-.91-.34-1.27-.76-.93-.69-2.28.16-3.13.85-.85,2.2-.92,3.13-.16.35.29.81.41,1.26.34.45-.07.85-.33,1.1-.71,1.46-2.22,2.47-4.65,3-7.24.09-.45,0-.91-.28-1.28-.27-.37-.68-.6-1.14-.65-1.2-.12-2.1-1.12-2.1-2.33s.9-2.21,2.1-2.33c.45-.05.87-.28,1.14-.65.27-.37.37-.83.28-1.28-.53-2.59-1.54-5.03-3-7.24-.25-.38-.65-.64-1.1-.71-.45-.07-.91.06-1.27.34-.93.76-2.28.69-3.13-.16-.85-.85-.92-2.2-.16-3.13.29-.35.41-.81.34-1.27-.07-.45-.33-.85-.71-1.1-2.22-1.46-4.65-2.47-7.24-3-.45-.09-.91,0-1.28.28-.37.27-.6.68-.65,1.14-.12,1.2-1.12,2.1-2.33,2.1s-2.21-.9-2.33-2.1c-.05-.45-.28-.87-.65-1.14-.37-.27-.83-.37-1.28-.28-2.59.53-5.03,1.54-7.24,3-.38.25-.64.65-.71,1.1s.06.91.34,1.26c.76.93.69,2.28-.16,3.13-.85.85-2.2.92-3.13.16-.35-.29-.81-.41-1.27-.34-.45.07-.85.33-1.1.71-1.46,2.22-2.47,4.65-3,7.24-.09.45,0,.91.28,1.28.27.37.68.6,1.14.65,1.2.12,2.1,1.12,2.1,2.33s-.9,2.21-2.1,2.33c-.45.05-.87.28-1.14.65-.27.37-.37.83-.28,1.28.53,2.59,1.54,5.03,3,7.24.25.38.65.64,1.1.71.45.07.91-.06,1.26-.34.93-.76,2.28-.69,3.13.16.85.85.92,2.2.16,3.13-.29.35-.41.81-.34,1.26s.33.85.71,1.1c2.22,1.46,4.65,2.47,7.24,3,.45.09.91,0,1.28-.28Zm-5.47-4.65c.73-1.98.28-4.27-1.3-5.85-1.58-1.58-3.87-2.03-5.85-1.3-.59-1.08-1.06-2.22-1.41-3.39,1.92-.89,3.22-2.82,3.22-5.05s-1.3-4.17-3.22-5.05c.35-1.18.82-2.31,1.41-3.39,1.98.73,4.27.28,5.85-1.3,1.58-1.58,2.03-3.87,1.3-5.85,1.08-.59,2.22-1.06,3.39-1.41.89,1.92,2.82,3.22,5.05,3.22s4.17-1.3,5.05-3.22c1.18.35,2.31.82,3.39,1.41-.73,1.98-.28,4.27,1.3,5.85,1.58,1.58,3.87,2.03,5.85,1.3.59,1.08,1.06,2.22,1.41,3.39-1.92.89-3.22,2.82-3.22,5.05s1.3,4.17,3.22,5.05c-.35,1.18-.82,2.31-1.41,3.39-1.98-.73-4.27-.28-5.85,1.3-1.58,1.58-2.03,3.87-1.3,5.85-1.08.59-2.22,1.06-3.39,1.41-.89-1.92-2.82-3.22-5.05-3.22s-4.17,1.3-5.05,3.22c-1.18-.35-2.31-.82-3.39-1.41Z"/>
  </g>
</svg>