<?xml version="1.0" encoding="UTF-8"?>
<svg id="Layer_1" data-name="Layer 1" xmlns="http://www.w3.org/2000/svg" viewBox="0 0 200.51 95.83">
  <defs>
    <style>
      .cls-1 {
        fill: #fff;
      }
    </style>
  </defs>
  <g>
    <path class="cls-1" d="m72.92,9.27c-.75-.38-18.59-9.27-35.64-9.27S2.39,8.89,1.64,9.27C.64,9.77,0,10.81,0,11.93v46.62C0,63.56,2.02,68.67,5.99,73.74c3.02,3.85,7.18,7.71,12.39,11.48,8.72,6.31,17.32,10.19,17.68,10.35.39.17.8.26,1.22.26s.83-.09,1.22-.26c.36-.16,8.95-4.04,17.68-10.35,5.2-3.77,9.37-7.63,12.39-11.48,3.98-5.08,5.99-10.19,5.99-15.19V11.93c0-1.13-.64-2.16-1.64-2.67Zm-4.33,49.29c0,1.98-.48,3.94-1.29,5.84l-4.89-12.55-28.69,13.4-1.96,21.4c-2.88-1.62-6.38-3.74-9.86-6.26-7.26-5.25-15.91-13.31-15.91-21.83V13.83c4.67-2.12,18.49-7.85,31.3-7.85s26.63,5.74,31.3,7.85v44.72Z"/>
    <polygon class="cls-1" points="29.2 35.83 10.74 35.83 12.12 48.29 34.5 56.59 33.97 62.37 61.5 49.52 58.68 42.29 56.82 31.45 54.57 13.68 48.39 31.45 43.73 22.45 43.73 31.45 31.27 31.45 29.2 35.83"/>
    <path class="cls-1" d="m31.45,65.09c-.69,0-1.24,1.11-1.24,2.49s.56,2.49,1.24,2.49,1.24-1.11,1.24-2.49-.56-2.49-1.24-2.49Z"/>
  </g>
  <g>
    <path class="cls-1" d="m114.22,44.46h9.3v4.09h-9.3v-4.09Z"/>
    <g>
      <path class="cls-1" d="m109.37,31.34v5.75c-2.81-2.35-5.71-3.52-8.71-3.52-3.31,0-6.09,1.19-8.36,3.56-2.28,2.36-3.42,5.25-3.42,8.67s1.14,6.23,3.42,8.55c2.28,2.32,5.07,3.48,8.38,3.48,1.71,0,3.16-.28,4.36-.83.67-.28,1.36-.65,2.07-1.13.72-.47,1.47-1.04,2.26-1.71v5.86c-2.78,1.57-5.7,2.36-8.75,2.36-4.6,0-8.52-1.6-11.78-4.81-3.24-3.24-4.86-7.14-4.86-11.71,0-4.1,1.35-7.75,4.06-10.96,3.33-3.93,7.65-5.9,12.94-5.9,2.89,0,5.68.79,8.38,2.36Z"/>
      <path class="cls-1" d="m133.23,48.72v13.07h-4.86V29.61h5.5c2.7,0,4.73.19,6.11.56,1.39.38,2.61,1.08,3.67,2.13,1.85,1.81,2.77,4.09,2.77,6.84,0,2.95-.99,5.28-2.96,7s-4.63,2.58-7.98,2.58h-2.25Zm0-4.5h1.81c4.46,0,6.69-1.72,6.69-5.15s-2.3-4.98-6.9-4.98h-1.6v10.13Z"/>
      <path class="cls-1" d="m150.53,41.49h4.69v1.81c.86-.9,1.63-1.52,2.29-1.86.68-.35,1.49-.52,2.42-.52,1.24,0,2.53.4,3.88,1.21l-2.15,4.29c-.89-.64-1.76-.96-2.61-.96-2.56,0-3.84,1.93-3.84,5.79v10.53h-4.69v-20.3Z"/>
      <path class="cls-1" d="m165.16,51.5c0-2.93,1.05-5.43,3.15-7.48,2.1-2.06,4.65-3.08,7.67-3.08s5.6,1.04,7.71,3.11c2.08,2.07,3.13,4.61,3.13,7.63s-1.05,5.59-3.15,7.65c-2.11,2.04-4.7,3.06-7.77,3.06s-5.59-1.04-7.65-3.13c-2.06-2.06-3.08-4.64-3.08-7.75Zm4.79.08c0,2.03.54,3.63,1.63,4.81,1.11,1.2,2.58,1.79,4.4,1.79s3.3-.59,4.4-1.77c1.1-1.18,1.65-2.76,1.65-4.73s-.55-3.55-1.65-4.73c-1.11-1.2-2.58-1.79-4.4-1.79s-3.24.6-4.36,1.79c-1.11,1.2-1.67,2.74-1.67,4.63Z"/>
      <path class="cls-1" d="m196.86,45.87v15.92h-4.69v-15.92h-2v-4.38h2v-7.44h4.69v7.44h3.65v4.38h-3.65Z"/>
    </g>
  </g>
</svg>