<?xml version="1.0" encoding="UTF-8"?>
<svg id="Layer_1" data-name="Layer 1" xmlns="http://www.w3.org/2000/svg" viewBox="0 0 116.46 110.58">
  <defs>
    <style>
      .cls-1 {
        fill: #fff;
      }
    </style>
  </defs>
  <path class="cls-1" d="m104.76,28.51h-5.51c-.56-2.44-1.42-4.83-2.59-7.14-2.12-4.19-5.16-7.95-9.02-11.18-3.84-3.2-8.3-5.72-13.26-7.47C69.27.92,63.83,0,58.23,0s-11.04.92-16.16,2.73c-4.96,1.75-9.42,4.27-13.26,7.47-3.86,3.22-6.89,6.98-9.02,11.18-1.17,2.31-2.03,4.69-2.59,7.14h-5.51C5.25,28.51,0,33.75,0,40.2v21.44C0,68.1,5.25,73.34,11.7,73.34h6.53c.98,0,1.77-.79,1.77-1.77v-36.4c0-17.45,17.15-31.64,38.24-31.64s38.24,14.19,38.24,31.64v31.5c0,3.61-.73,7.14-2.16,10.51-1.4,3.27-3.43,6.32-6.04,9.06-5.07,5.31-12.12,9.18-19.94,10.95-1.26-4.39-5.3-7.61-10.09-7.61-5.79,0-10.49,4.71-10.49,10.49s4.71,10.49,10.49,10.49,10.14-4.36,10.47-9.84c4.25-.92,8.29-2.4,12-4.4,3.85-2.07,7.25-4.64,10.11-7.64,2.91-3.05,5.17-6.45,6.73-10.12.73-1.71,1.29-3.46,1.7-5.23h5.51c6.45,0,11.7-5.25,11.7-11.7v-21.44c0-6.45-5.25-11.7-11.7-11.7Zm-88.3,6.67v34.64h-4.76c-4.5,0-8.16-3.66-8.16-8.16v-21.44c0-4.5,3.66-8.16,8.16-8.16h4.76v3.13Zm41.77,71.87c-3.84,0-6.96-3.12-6.96-6.96s3.12-6.96,6.96-6.96,6.96,3.12,6.96,6.96-3.12,6.96-6.96,6.96Zm54.7-45.4c0,4.5-3.66,8.16-8.16,8.16h-4.76v-37.77h4.76c4.5,0,8.16,3.66,8.16,8.16v21.44Z"/>
  <path class="cls-1" d="m68.4,55.29c0-5.61-4.56-10.17-10.17-10.17s-10.17,4.56-10.17,10.17,4.56,10.17,10.17,10.17,10.17-4.56,10.17-10.17Zm-16.82,0c0-3.66,2.98-6.64,6.64-6.64s6.64,2.98,6.64,6.64-2.98,6.64-6.64,6.64-6.64-2.98-6.64-6.64Z"/>
  <path class="cls-1" d="m54.97,77.45c.4-.3.66-.75.71-1.25.13-1.31,1.23-2.3,2.55-2.3s2.42.99,2.55,2.3c.05.5.31.95.71,1.25.31.22.67.34,1.05.34.12,0,.24-.01.36-.04,2.83-.59,5.5-1.69,7.93-3.29.42-.27.7-.71.78-1.21.08-.49-.06-1-.38-1.38-.83-1.02-.76-2.49.18-3.43.93-.93,2.41-1.01,3.43-.18.39.32.89.45,1.38.38.49-.08.93-.36,1.21-.78,1.6-2.43,2.7-5.09,3.29-7.93.1-.49-.01-1-.31-1.4-.3-.4-.75-.66-1.25-.71-1.31-.13-2.3-1.23-2.3-2.55s.99-2.42,2.3-2.55c.5-.05.95-.31,1.25-.71.3-.4.41-.91.31-1.4-.58-2.83-1.69-5.5-3.29-7.93-.27-.42-.71-.7-1.21-.78-.49-.08-1,.06-1.38.38-1.02.83-2.49.76-3.43-.18-.93-.93-1.01-2.41-.18-3.43.32-.39.45-.89.38-1.38-.08-.49-.36-.93-.78-1.21-2.43-1.6-5.09-2.7-7.93-3.29-.49-.1-1,.01-1.4.31-.4.3-.66.75-.71,1.25-.13,1.31-1.23,2.3-2.55,2.3s-2.42-.99-2.55-2.3c-.05-.5-.31-.95-.71-1.25-.4-.3-.91-.41-1.4-.31-2.83.59-5.5,1.69-7.93,3.29-.42.27-.7.71-.78,1.21s.06,1,.38,1.38c.83,1.02.76,2.49-.18,3.43-.93.93-2.41,1.01-3.43.18-.39-.32-.89-.45-1.38-.38-.49.08-.93.36-1.21.78-1.6,2.43-2.7,5.09-3.29,7.93-.1.49.01,1,.31,1.4.3.4.75.66,1.25.71,1.31.13,2.3,1.23,2.3,2.55s-.99,2.42-2.3,2.55c-.5.05-.95.31-1.25.71-.3.4-.41.91-.31,1.4.58,2.83,1.69,5.5,3.29,7.93.27.42.71.7,1.21.78.49.08,1-.06,1.38-.38,1.02-.83,2.49-.76,3.43.18.93.93,1.01,2.41.18,3.43-.32.39-.45.89-.38,1.38s.36.93.78,1.21c2.43,1.6,5.09,2.7,7.93,3.29.49.1,1-.01,1.4-.31Zm-5.99-5.09c.8-2.17.31-4.68-1.42-6.4-1.73-1.73-4.23-2.22-6.4-1.42-.64-1.18-1.16-2.43-1.54-3.72,2.1-.97,3.53-3.09,3.53-5.53s-1.42-4.56-3.53-5.53c.38-1.29.9-2.53,1.54-3.72,2.17.8,4.68.31,6.4-1.42,1.73-1.73,2.22-4.23,1.42-6.4,1.18-.64,2.43-1.16,3.72-1.54.97,2.1,3.09,3.53,5.53,3.53s4.56-1.42,5.53-3.53c1.29.38,2.53.9,3.72,1.54-.8,2.17-.31,4.68,1.42,6.4,1.73,1.73,4.23,2.22,6.4,1.42.64,1.18,1.16,2.43,1.54,3.72-2.1.97-3.53,3.09-3.53,5.53s1.42,4.56,3.53,5.53c-.38,1.29-.9,2.53-1.54,3.72-2.17-.8-4.68-.31-6.4,1.42-1.73,1.73-2.22,4.23-1.42,6.4-1.18.64-2.43,1.16-3.72,1.54-.97-2.1-3.09-3.53-5.53-3.53s-4.56,1.42-5.53,3.53c-1.29-.38-2.53-.9-3.72-1.54Z"/>
</svg>