<?xml version="1.0" encoding="UTF-8"?>
<svg id="Layer_1" data-name="Layer 1" xmlns="http://www.w3.org/2000/svg" xmlns:xlink="http://www.w3.org/1999/xlink" viewBox="0 0 50.99 57.37">
  <defs>
    <style>
      .cls-1 {
        fill: url(#linear-gradient);
      }

      .cls-1, .cls-2, .cls-3, .cls-4 {
        fill-rule: evenodd;
      }

      .cls-2 {
        fill: url(#linear-gradient-3);
      }

      .cls-3 {
        fill: url(#linear-gradient-2);
      }

      .cls-4 {
        fill: url(#linear-gradient-4);
      }
    </style>
    <linearGradient id="linear-gradient" x1="0" y1="45.05" x2="45.2" y2="45.05" gradientUnits="userSpaceOnUse">
      <stop offset=".25" stop-color="#0078a7"/>
      <stop offset="1" stop-color="#16429f"/>
    </linearGradient>
    <linearGradient id="linear-gradient-2" y1="25.64" x2="50.99" y2="25.64" xlink:href="#linear-gradient"/>
    <linearGradient id="linear-gradient-3" y1="28.83" x2="2.32" y2="28.83" xlink:href="#linear-gradient"/>
    <linearGradient id="linear-gradient-4" x1="15.07" y1="41" x2="17.38" y2="41" xlink:href="#linear-gradient"/>
  </defs>
  <polygon class="cls-1" points="44.06 41.96 43.58 42.03 43.27 42.28 43.02 42.61 42.95 43.1 42.95 53.99 42.86 54.4 42.61 54.81 42.23 55.05 41.82 55.12 3.38 55.12 2.9 55.05 2.58 54.81 2.34 54.4 2.25 53.99 2.25 33.78 2.17 33.39 1.86 32.98 1.52 32.81 1.13 32.74 .65 32.81 .31 32.98 .07 33.39 0 33.78 0 53.99 .07 54.64 .24 55.29 .56 55.84 .89 56.33 1.45 56.71 2 57.05 2.66 57.29 3.38 57.37 41.82 57.37 42.54 57.29 43.1 57.05 43.75 56.71 44.16 56.33 44.55 55.84 44.96 55.29 45.12 54.64 45.2 53.99 45.2 43.1 45.12 42.61 44.88 42.28 44.47 42.03 44.06 41.96"/>
  <path class="cls-3" d="m35.2,10.96l-.48-.07-.31-.24-.24-.34-.1-.48V3.79l7.15,7.17h-6.01Zm13.06,9.92l-.8-.65-.8-.56-.82-.48-.87-.34v-6.76l-.07-.41-.24-.39L33.68.31l-.34-.24-.39-.07H3.36l-.7.07-.65.17-.56.41-.56.31-.34.48-.31.65-.17.56-.07.72v20.81l.07.48.24.31.34.24.46.1.41-.1.31-.24.34-.31.07-.48V3.38l.07-.48.24-.31.34-.24.46-.07h28.47v7.56l.1.72.14.58.34.65.31.39.56.48.56.34.65.14.72.1h7.53v5l-1.04-.1-1.13.1-1.04.14-1.04.34-.89.31-.94.48-.89.72-.87.65-15.89,16.06-.17.31-.07.41.07.48.17.31.41.24.48.07.31-.07.39-.24,15.89-15.96.48-.48.63-.41.58-.31.72-.41.56-.24.72-.07.63-.17h1.38l.72.17.7.07.65.24.65.41.56.31.63.41.48.48.58.56.39.65.31.56.41.65.17.65.14.72.1.56.07.8-.07.75-.1.56-.14.72-.17.65-.41.63-.31.58-.39.65-.58.56-14.82,14.99-.41.24-.31.24-.31.24-.48.24-.8.24-.89.07-.8-.07-.8-.24-.48-.24-.31-.24-.34-.24-.39-.24-.34-.31-.24-.41-.14-.41-.31-.31-.1-.48-.14-.41v-.39l-.1-.51.1-.39v-.58l.14-.31.1-.41.31-.48.14-.31.24-.31.34-.41,14.9-14.99.34-.17.24-.17.39-.07.31-.17.34.17.39.07.24.17.24.17.24.24.17.31.07.31v.65l-.07.41-.17.31-.24.24-13.47,13.47-.24.48-.07.41.07.31.24.48.41.24h.89l.31-.24,13.38-13.62.58-.58.31-.72.24-.72.07-.8-.07-.82-.24-.63-.31-.72-.58-.58-.56-.56-.72-.31-.63-.24-.82-.1-.8.1-.72.24-.72.31-.56.56-14.99,14.99-.39.48-.48.58-.34.48-.24.65-.22.56-.17.72-.07.65v1.28l.07.65.17.65.22.56.24.65.34.56.48.56.39.51.48.39.65.48.48.34.63.24.56.14.72.24.58.1.63.07.65-.07.63-.1.72-.24.56-.14.65-.24.48-.34.65-.48.46-.39,14.92-14.92.56-.72.65-.82.41-.8.39-.82.31-.87.24-.89.1-.89.07-.89-.07-.97-.1-.8-.24-.97-.31-.89-.39-.8-.41-.82-.65-.8-.56-.72Z"/>
  <polygon class="cls-2" points="1.91 28.18 1.57 27.89 1.16 27.81 .65 27.89 .34 28.18 .07 28.47 0 28.83 .07 29.26 .34 29.62 .65 29.77 1.16 29.84 1.57 29.77 1.91 29.62 2.25 29.26 2.32 28.83 2.25 28.47 1.91 28.18"/>
  <polygon class="cls-4" points="17.38 40.71 17.29 40.71 17.12 40.34 16.78 40.05 16.35 39.98 15.84 39.98 15.5 40.27 15.23 40.56 15.07 40.92 15.16 41.36 15.33 41.65 15.57 41.87 15.84 42.01 16.18 42.01 16.44 42.01 16.61 42.01 17.05 41.79 17.29 41.5 17.38 41.14 17.38 40.71"/>
</svg>