<?xml version="1.0" encoding="UTF-8"?>
<svg id="Layer_1" data-name="Layer 1" xmlns="http://www.w3.org/2000/svg" xmlns:xlink="http://www.w3.org/1999/xlink" viewBox="0 0 57.08 56.79">
  <defs>
    <style>
      .cls-1 {
        fill: url(#linear-gradient);
      }

      .cls-1, .cls-2, .cls-3, .cls-4 {
        fill-rule: evenodd;
      }

      .cls-2 {
        fill: url(#linear-gradient-3);
      }

      .cls-3 {
        fill: url(#linear-gradient-2);
      }

      .cls-4 {
        fill: url(#linear-gradient-4);
      }
    </style>
    <linearGradient id="linear-gradient" x1="0" y1="28.39" x2="57.08" y2="28.39" gradientUnits="userSpaceOnUse">
      <stop offset=".25" stop-color="#0078a7"/>
      <stop offset="1" stop-color="#16429f"/>
    </linearGradient>
    <linearGradient id="linear-gradient-2" x1="11.88" y1="28.54" x2="45.2" y2="28.54" xlink:href="#linear-gradient"/>
    <linearGradient id="linear-gradient-3" x1="20.57" y1="28.54" x2="36.51" y2="28.54" xlink:href="#linear-gradient"/>
    <linearGradient id="linear-gradient-4" x1="16.8" y1="16.95" x2="19.12" y2="16.95" xlink:href="#linear-gradient"/>
  </defs>
  <path class="cls-1" d="m54.83,30.95l-4.49,1.11-.24.1-.24.14-.17.34-.07.31-.34.97-.22.8-.24.94-.34.97-.48.89-.39.8-.48.87-.48.89-.17.24-.07.24.07.39.07.24,2.41,3.91-3.6,3.6-3.94-2.32-.34-.14h-.56l-.31.14-.8.58-.89.39-.89.41-.87.48-.89.31-.97.31-.97.24-.87.24-.31.07-.24.24-.17.17-.17.31-1.04,4.39h-5.14l-1.11-4.39-.1-.31-.24-.17-.24-.24-.31-.07-.97-.24-.97-.24-.8-.31-.97-.31-.87-.48-.89-.41-.8-.39-.89-.58-.24-.14h-.63l-.24.14-3.94,2.32-3.69-3.6,2.32-3.91.24-.24v-.39l-.07-.24-.17-.24-.48-.89-.39-.87-.58-.8-.31-.89-.31-.97-.41-.94-.24-.8-.14-.97-.17-.31-.17-.34-.31-.14-.24-.1-4.49-1.11v-5.12l4.49-1.11.24-.1.31-.14.17-.34.17-.24.14-.94.24-.89.41-.94.31-.97.31-.89.58-.8.39-.87.48-.8.17-.34.07-.24v-.39l-.24-.24-2.32-3.91,3.69-3.6,3.94,2.32.24.14h.63l.24-.14.89-.58.8-.39.89-.41.87-.48.97-.31.8-.24.97-.31.97-.24.31-.07.24-.17.24-.24.1-.31,1.11-4.39h5.14l1.04,4.39.17.31.17.24.24.17.31.07.87.24.97.31.97.24.89.31.87.48.89.41.89.39.8.58.31.14h.56l.34-.14,3.94-2.32,3.6,3.6-2.41,3.91-.07.24-.07.39.07.24.17.34.48.8.48.87.39.8.48.89.34.97.24.94.22.89.34.94.07.24.17.34.24.14.24.1,4.49,1.11v5.12Zm1.35-7.05l-4.64-1.18-.41-1.69-.72-1.67-.65-1.62-.87-1.59,2.41-4.08.14-.31v-.31l-.07-.41-.24-.31-4.83-4.8-.39-.24-.31-.07h-.34l-.31.17-4.18,2.39-1.52-.89-1.69-.7-1.59-.65-1.69-.48-1.21-4.56-.24-.31-.17-.31-.31-.17-.31-.07h-6.91l-.34.07-.39.17-.24.31-.17.31-1.11,4.56-1.79.48-1.67.65-1.62.7-1.59.89-4.03-2.39-.31-.17h-.48l-.31.07-.24.24-4.9,4.8-.24.31-.07.41v.31l.07.31,2.56,4.08-.87,1.59-.8,1.62-.58,1.67-.56,1.69-4.66,1.18-.31.1-.24.31-.17.31L0,24.96v6.86l.07.34.17.31.24.31.31.17,4.66,1.11.56,1.69.58,1.76.8,1.52.87,1.59-2.56,4.08-.07.31v.31l.07.48.24.24,4.9,4.88.24.17.31.07h.48l.31-.17,4.03-2.39,1.59.89,1.62.7,1.67.65,1.79.48,1.11,4.56.17.31.24.39.39.17h7.56l.31-.17.17-.39.24-.31,1.21-4.56,1.69-.48,1.59-.65,1.69-.7,1.52-.89,4.18,2.39.31.17h.34l.31-.07.39-.17,4.83-4.88.24-.24.07-.48v-.31l-.14-.31-2.41-4.08.87-1.59.65-1.52.72-1.76.41-1.69,4.64-1.11.34-.17.31-.31.17-.31.07-.34v-6.86l-.07-.34-.17-.31-.31-.31-.34-.1Z"/>
  <polygon class="cls-3" points="28.54 11.88 27.5 11.88 26.53 11.95 25.57 12.12 24.77 12.29 23.81 12.6 22.84 12.84 21.97 13.16 21.08 13.57 20.76 13.88 20.52 14.2 20.52 14.61 20.62 15.09 20.86 15.4 21.25 15.65 21.66 15.72 22.04 15.57 22.84 15.23 23.66 14.99 24.36 14.68 25.18 14.44 26.05 14.29 26.78 14.2 27.67 14.12 28.54 14.12 29.99 14.2 31.41 14.37 32.79 14.68 34.07 15.23 35.42 15.81 36.63 16.61 37.74 17.41 38.7 18.28 39.67 19.34 40.46 20.45 41.26 21.66 41.84 22.94 42.23 24.22 42.71 25.66 42.88 27.09 42.95 28.54 42.88 29.99 42.71 31.41 42.23 32.86 41.84 34.14 41.26 35.42 40.46 36.63 39.67 37.74 38.7 38.8 37.74 39.67 36.63 40.56 35.42 41.26 34.07 41.84 32.79 42.4 31.41 42.71 29.99 42.88 28.54 42.95 27.02 42.88 25.57 42.71 24.22 42.4 22.84 41.84 21.66 41.26 20.45 40.56 19.34 39.67 18.28 38.8 17.34 37.74 16.51 36.63 15.81 35.42 15.16 34.14 14.68 32.86 14.37 31.41 14.05 29.99 14.05 28.54 14.05 27.57 14.2 26.61 14.37 25.74 14.51 24.77 14.85 23.81 15.16 22.94 15.57 22.04 16.03 21.25 16.2 20.86 16.13 20.38 15.96 19.97 15.65 19.73 15.16 19.48 14.85 19.48 14.44 19.8 14.2 20.04 13.57 21.08 13.16 22.04 12.68 23.01 12.43 24.14 12.19 25.18 11.95 26.29 11.88 27.43 11.88 28.54 11.95 30.23 12.19 31.89 12.53 33.51 13.16 35.03 13.81 36.46 14.68 37.83 15.65 39.11 16.76 40.32 17.89 41.43 19.17 42.4 20.52 43.19 21.97 43.92 23.56 44.4 25.18 44.88 26.78 45.12 28.54 45.2 30.23 45.12 31.89 44.88 33.42 44.4 34.94 43.92 36.38 43.19 37.83 42.4 39.11 41.43 40.32 40.32 41.36 39.11 42.32 37.83 43.12 36.46 43.92 35.03 44.4 33.51 44.88 31.89 45.12 30.23 45.2 28.54 45.12 26.85 44.88 25.18 44.4 23.56 43.92 22.14 43.12 20.62 42.32 19.24 41.36 17.96 40.32 16.76 39.11 15.65 37.83 14.68 36.38 13.88 34.94 13.16 33.42 12.68 31.89 12.19 30.23 11.95 28.54 11.88"/>
  <path class="cls-2" d="m28.54,34.28h-.63l-.58-.1-.56-.14-.46-.24-.58-.24-.46-.24-.41-.31-.48-.41-.31-.39-.31-.41-.31-.56-.24-.48-.24-.56-.07-.48-.1-.56-.07-.63.07-.63.1-.48.07-.56.24-.56.24-.48.31-.56.31-.41.31-.39.48-.41.41-.31.46-.24.58-.24.46-.24.56-.14.58-.1h1.18l.56.1.56.14.56.24.48.24.41.24.56.31.31.41.48.39.31.41.24.56.24.48.14.56.24.56.1.48v1.26l-.1.56-.24.48-.14.56-.24.48-.24.56-.31.41-.48.39-.31.41-.56.31-.41.24-.48.24-.56.24-.56.14-.56.1h-.56Zm0-13.71h-.87l-.8.17-.72.22-.72.24-.8.34-.56.39-.63.48-.56.48-.56.63-.41.56-.39.72-.41.63-.24.72-.24.8-.07.8v1.67l.07.72.24.8.24.72.41.63.39.72.41.56.56.63.56.48.63.48.56.39.8.34.72.22.72.24.8.17h1.59l.87-.17.72-.24.7-.22.72-.34.72-.39.56-.48.63-.48.48-.63.41-.56.46-.72.34-.63.22-.72.17-.8.07-.72.17-.87-.17-.8-.07-.8-.17-.8-.22-.72-.34-.63-.46-.72-.41-.56-.48-.63-.63-.48-.56-.48-.72-.39-.72-.34-.7-.24-.72-.22-.87-.17h-.72Z"/>
  <polygon class="cls-4" points="18.71 16.18 18.37 16.01 17.96 15.93 17.46 16.01 17.14 16.18 16.88 16.56 16.8 16.88 16.88 17.34 17.14 17.72 17.46 17.89 17.96 17.96 18.37 17.89 18.71 17.72 19.05 17.34 19.12 16.88 19.05 16.56 18.71 16.18"/>
</svg>