<?xml version="1.0" encoding="UTF-8"?>
<svg id="Layer_1" data-name="Layer 1" xmlns="http://www.w3.org/2000/svg" xmlns:xlink="http://www.w3.org/1999/xlink" viewBox="0 0 38.24 56.79">
  <defs>
    <style>
      .cls-1 {
        fill: url(#linear-gradient);
      }

      .cls-1, .cls-2, .cls-3, .cls-4, .cls-5, .cls-6, .cls-7, .cls-8, .cls-9 {
        fill-rule: evenodd;
      }

      .cls-2 {
        fill: url(#linear-gradient-8);
      }

      .cls-3 {
        fill: url(#linear-gradient-9);
      }

      .cls-4 {
        fill: url(#linear-gradient-3);
      }

      .cls-5 {
        fill: url(#linear-gradient-2);
      }

      .cls-6 {
        fill: url(#linear-gradient-4);
      }

      .cls-7 {
        fill: url(#linear-gradient-6);
      }

      .cls-8 {
        fill: url(#linear-gradient-7);
      }

      .cls-9 {
        fill: url(#linear-gradient-5);
      }
    </style>
    <linearGradient id="linear-gradient" x1="14.78" y1="4.49" x2="16.8" y2="4.49" gradientUnits="userSpaceOnUse">
      <stop offset=".25" stop-color="#0078a7"/>
      <stop offset="1" stop-color="#16429f"/>
    </linearGradient>
    <linearGradient id="linear-gradient-2" x1="22.6" y1="15.5" x2="31.58" y2="15.5" xlink:href="#linear-gradient"/>
    <linearGradient id="linear-gradient-3" x1="0" y1="15.5" x2="9.27" y2="15.5" xlink:href="#linear-gradient"/>
    <linearGradient id="linear-gradient-4" x1="5.22" y1="7.82" x2="10.72" y2="7.82" xlink:href="#linear-gradient"/>
    <linearGradient id="linear-gradient-5" x1="21.15" y1="7.82" x2="26.65" y2="7.82" xlink:href="#linear-gradient"/>
    <linearGradient id="linear-gradient-6" x1="11.88" y1="28.1" x2="38.24" y2="28.1" xlink:href="#linear-gradient"/>
    <linearGradient id="linear-gradient-7" x1="2.32" y1="42.3" x2="33.32" y2="42.3" xlink:href="#linear-gradient"/>
    <linearGradient id="linear-gradient-8" x1="33.9" y1="47.95" x2="36.22" y2="47.95" xlink:href="#linear-gradient"/>
    <linearGradient id="linear-gradient-9" x1="11.88" y1="25.21" x2="13.91" y2="25.21" xlink:href="#linear-gradient"/>
  </defs>
  <polygon class="cls-1" points="15.79 -.14 15.43 -.07 15.07 .17 14.85 .58 14.78 .99 14.78 7.99 14.85 8.4 15.07 8.72 15.43 9.05 15.79 9.13 16.15 9.05 16.59 8.72 16.73 8.4 16.8 7.99 16.8 .99 16.73 .58 16.59 .17 16.15 -.07 15.79 -.14"/>
  <polygon class="cls-5" points="30.47 14.34 23.71 14.34 23.23 14.41 22.91 14.75 22.67 15.09 22.6 15.5 22.67 16.01 22.91 16.32 23.23 16.59 23.71 16.66 30.47 16.66 30.95 16.59 31.27 16.32 31.51 16.01 31.58 15.5 31.51 15.09 31.27 14.75 30.95 14.41 30.47 14.34"/>
  <polygon class="cls-4" points="8.11 14.34 1.16 14.34 .65 14.41 .24 14.75 .07 15.09 0 15.5 .07 16.01 .24 16.32 .65 16.59 1.16 16.66 8.11 16.66 8.62 16.59 8.93 16.32 9.2 16.01 9.27 15.5 9.2 15.09 8.93 14.75 8.62 14.41 8.11 14.34"/>
  <polygon class="cls-6" points="10.31 8.67 7.15 5.48 6.66 5.14 6.35 5.07 5.94 5.14 5.46 5.48 5.29 5.79 5.22 6.18 5.29 6.66 5.46 6.98 8.79 10.26 9.1 10.5 9.59 10.57 10 10.5 10.31 10.26 10.65 9.85 10.72 9.46 10.65 9.05 10.31 8.67"/>
  <polygon class="cls-9" points="26.34 5.48 25.93 5.14 25.52 5.07 25.11 5.14 24.72 5.48 21.46 8.67 21.22 9.05 21.15 9.46 21.22 9.85 21.46 10.26 21.87 10.5 22.28 10.57 22.7 10.5 23.08 10.26 26.34 6.98 26.58 6.66 26.65 6.18 26.58 5.79 26.34 5.48"/>
  <polygon class="cls-7" points="34.04 25.18 33.56 25.18 32.93 25.33 32.52 25.57 32.04 25.74 31.72 25.09 31.39 24.6 31.07 24.05 30.49 23.64 30.01 23.32 29.38 23.08 28.73 22.84 28.01 22.77 27.6 22.77 27.11 22.84 26.7 22.94 26.39 23.15 25.59 23.56 25.01 24.05 24.39 23.56 23.73 23.15 23.25 22.94 22.84 22.84 22.36 22.77 21.95 22.77 21.46 22.77 20.98 22.84 20.5 23.08 20.02 23.25 20.02 15.55 19.94 14.73 19.77 13.93 19.39 13.21 18.81 12.65 18.25 12.1 17.53 11.76 16.8 11.52 15.91 11.44 15.11 11.52 14.39 11.76 13.64 12.1 13.09 12.65 12.53 13.21 12.12 13.93 11.88 14.73 11.88 15.55 11.88 21.39 11.95 21.87 12.12 22.21 12.43 22.45 12.84 22.53 13.33 22.45 13.74 22.21 13.88 21.87 13.98 21.39 13.98 15.55 14.05 15.21 14.22 14.82 14.39 14.49 14.63 14.17 14.87 14 15.19 13.86 15.6 13.69 15.91 13.69 16.32 13.69 16.71 13.86 17.05 14 17.29 14.17 17.53 14.49 17.67 14.82 17.84 15.21 17.84 15.55 17.84 34.24 17.91 34.65 18.16 35.06 18.49 35.3 18.98 35.37 19.39 35.3 19.7 35.06 19.94 34.65 20.02 34.24 20.02 26.94 20.18 26.53 20.26 26.15 20.43 25.91 20.67 25.57 20.91 25.33 21.22 25.18 21.63 25.01 21.95 25.01 22.36 25.01 22.77 25.18 23.08 25.33 23.32 25.57 23.56 25.91 23.81 26.15 23.9 26.53 23.9 26.94 23.9 34.24 23.97 34.65 24.22 35.06 24.53 35.3 25.01 35.37 25.42 35.3 25.74 35.06 25.98 34.65 26.15 34.24 26.15 26.94 26.22 26.53 26.32 26.15 26.46 25.91 26.7 25.57 26.94 25.33 27.35 25.18 27.69 25.01 28.01 25.01 28.49 25.01 28.8 25.18 29.05 25.33 29.38 25.57 29.53 25.91 29.77 26.15 29.94 26.53 29.94 26.94 29.94 34.24 30.01 34.65 30.25 35.06 30.59 35.3 31.07 35.37 31.46 35.3 31.8 35.06 32.11 34.65 32.21 34.24 32.21 29.36 32.21 28.88 32.35 28.54 32.52 28.22 32.69 27.98 33 27.81 33.32 27.5 33.73 27.43 34.04 27.43 34.45 27.43 34.86 27.5 35.11 27.81 35.42 27.98 35.66 28.22 35.83 28.54 35.97 28.88 35.97 29.36 35.97 41 35.9 42.2 35.73 43.48 35.83 43.87 35.97 44.21 36.24 44.59 36.63 44.76 36.8 44.76 36.87 44.76 37.28 44.69 37.52 44.45 37.76 44.21 38 43.8 38.07 43.07 38.17 42.44 38.24 41.62 38.24 41 38.24 29.36 38.17 28.47 37.83 27.67 37.52 27.02 37.04 26.39 36.38 25.91 35.73 25.57 34.94 25.25 34.04 25.18"/>
  <polygon class="cls-8" points="33.08 51.06 32.67 50.82 32.28 50.75 31.87 50.75 31.46 50.99 30.42 51.86 29.38 52.51 28.34 53.24 27.14 53.72 25.86 54.2 24.65 54.44 23.37 54.59 22.07 54.69 21.1 54.59 20.23 54.52 19.27 54.35 18.3 54.11 17.41 53.79 16.54 53.48 15.65 53.07 14.85 52.51 14.12 52.03 13.33 51.38 12.6 50.82 11.95 50.1 11.32 49.45 10.74 48.65 10.26 47.76 9.78 46.96 4.73 36.36 4.49 35.88 4.39 35.54 4.39 35.23 4.49 34.74 4.73 34.43 4.88 34.19 5.12 33.85 5.46 33.61 5.84 33.46 6.25 33.37 6.57 33.37 7.05 33.37 7.39 33.54 7.7 33.7 7.94 34.02 8.26 34.33 11.88 40.3 12.12 40.54 12.43 40.68 12.75 40.78 13.16 40.78 13.47 40.61 13.71 40.37 13.88 40.13 13.88 39.64 13.88 28.8 13.81 28.39 13.64 27.98 13.23 27.84 12.75 27.67 12.36 27.84 12.02 27.98 11.88 28.39 11.81 28.8 11.81 35.71 10.12 33.22 9.63 32.5 8.98 31.92 8.33 31.53 7.53 31.22 6.74 31.12 6.01 31.12 5.12 31.29 4.32 31.68 3.69 32.16 3.11 32.81 2.73 33.37 2.49 34.19 2.32 34.91 2.32 35.71 2.39 36.51 2.63 37.23 7.77 47.85 8.33 48.89 8.91 49.86 9.54 50.75 10.26 51.55 11.08 52.44 11.88 53.16 12.68 53.79 13.64 54.44 14.61 55 15.65 55.55 16.68 55.97 17.75 56.28 18.86 56.62 19.82 56.76 20.96 56.86 22.07 56.93 23.69 56.86 25.13 56.62 26.58 56.21 27.93 55.8 29.31 55.17 30.59 54.44 31.87 53.55 32.91 52.59 33.25 52.27 33.32 51.86 33.25 51.38 33.08 51.06"/>
  <polygon class="cls-2" points="35.88 47.13 35.56 46.89 35.06 46.79 34.65 46.89 34.31 47.13 33.97 47.47 33.9 47.9 33.97 48.43 34.31 48.77 34.65 49.01 35.06 49.11 35.56 49.01 35.88 48.77 36.14 48.43 36.22 47.9 36.14 47.47 35.88 47.13"/>
  <polygon class="cls-3" points="13.67 24.36 13.28 24 12.82 23.9 12.51 24 12.12 24.36 11.95 24.75 11.88 25.21 11.95 25.76 12.12 26.15 12.51 26.41 12.82 26.51 13.28 26.41 13.67 26.15 13.83 25.76 13.91 25.21 13.83 24.75 13.67 24.36"/>
</svg>