<?xml version="1.0" encoding="UTF-8"?>
<svg id="Layer_1" data-name="Layer 1" xmlns="http://www.w3.org/2000/svg" xmlns:xlink="http://www.w3.org/1999/xlink" viewBox="0 0 93.79 89.87">
  <defs>
    <style>
      .cls-1 {
        fill: none;
      }

      .cls-2 {
        fill: url(#linear-gradient);
      }

      .cls-3 {
        clip-path: url(#clippath);
      }
    </style>
    <linearGradient id="linear-gradient" x1="0" y1="44.93" x2="93.68" y2="44.93" gradientUnits="userSpaceOnUse">
      <stop offset=".25" stop-color="#0078a6"/>
      <stop offset="1" stop-color="#16429e"/>
    </linearGradient>
    <clipPath id="clippath">
      <rect class="cls-1" x="-683.34" y="-815.24" width="490.78" height="894.9"/>
    </clipPath>
  </defs>
  <path class="cls-2" d="m92.25,52.1h-3.78v-9.17h-36.69c-.29-1.99-1.74-3.61-3.64-4.15v-6.43h35.65c1.07,0,1.95-.87,1.95-1.95V1.95c0-1.07-.87-1.95-1.95-1.95H9.71c-1.07,0-1.95.87-1.95,1.95v28.46c0,1.07.87,1.95,1.95,1.95h35.65v6.43c-1.9.54-3.35,2.16-3.64,4.15H5.03v9.17H1.43C.64,52.1,0,52.74,0,53.53v11.08c0,.79.64,1.43,1.43,1.43h10.63c.79,0,1.43-.64,1.43-1.43v-11.08c0-.79-.64-1.43-1.43-1.43h-4.25v-6.38h34.27c.61,1.38,1.8,2.44,3.27,2.86v3.53h-3.92c-.79,0-1.43.64-1.43,1.43v11.08c0,.79.64,1.43,1.43,1.43h10.63c.79,0,1.43-.64,1.43-1.43v-11.08c0-.79-.64-1.43-1.43-1.43h-3.92v-3.53c1.47-.42,2.67-1.48,3.27-2.86h34.27v6.38h-4.07c-.79,0-1.43.64-1.43,1.43v11.08c0,.79.64,1.43,1.43,1.43h4.07v14.68h-31.92c-.83-3.1-3.66-5.4-7.02-5.4-4.01,0-7.28,3.26-7.28,7.28s3.26,7.28,7.28,7.28c3.7,0,6.77-2.78,7.21-6.37h34.51v-17.46h3.78c.79,0,1.43-.64,1.43-1.43v-11.08c0-.79-.64-1.43-1.43-1.43ZM10.54,2.78h72.42v26.79H10.54V2.78Zm1.2,61.51H1.74v-10.45h10v10.45Zm40.01,0h-10v-10.45h10v10.45Zm-5-17.26c-1.85,0-3.35-1.5-3.35-3.35s1.5-3.35,3.35-3.35,3.35,1.5,3.35,3.35-1.5,3.35-3.35,3.35Zm0,41.19c-3.11,0-5.63-2.53-5.63-5.63s2.53-5.63,5.63-5.63,5.63,2.53,5.63,5.63-2.53,5.63-5.63,5.63Zm45.19-23.93h-10.01v-10.45h10.01v10.45Z"/>
  <g class="cls-3">
    <image width="1920" height="1080" transform="translate(-1208.52 -815.24) scale(.85)" xlink:href="C-PROT WEB/Fd Series Hd Outputs 1.png"/>
  </g>
</svg>