<?xml version="1.0" encoding="UTF-8"?>
<svg id="Layer_1" data-name="Layer 1" xmlns="http://www.w3.org/2000/svg" xmlns:xlink="http://www.w3.org/1999/xlink" viewBox="0 0 92.06 90.01">
  <defs>
    <style>
      .cls-1 {
        fill: url(#linear-gradient);
      }

      .cls-2 {
        fill: url(#linear-gradient-3);
      }

      .cls-3 {
        fill: url(#linear-gradient-2);
      }
    </style>
    <linearGradient id="linear-gradient" x1="0" y1="43.72" x2="44.32" y2="43.72" gradientUnits="userSpaceOnUse">
      <stop offset=".25" stop-color="#0078a6"/>
      <stop offset="1" stop-color="#16429e"/>
    </linearGradient>
    <linearGradient id="linear-gradient-2" x1="37.67" y1="25.9" x2="56.74" y2="25.9" xlink:href="#linear-gradient"/>
    <linearGradient id="linear-gradient-3" x1="48.01" y1="60.78" x2="92.06" y2="60.78" xlink:href="#linear-gradient"/>
  </defs>
  <path class="cls-1" d="m35.12,44.2c-4.26-3.53-9.35-5.86-14.76-6.78v-7.16c0-.49-.25-.95-.66-1.21-.42-.27-.93-.3-1.38-.09L.83,37.06C.32,37.3,0,37.8,0,38.36s.32,1.07.83,1.3l17.48,8.1c.19.09.4.13.61.13.27,0,.54-.08.77-.23.42-.27.66-.72.66-1.21v-6.19c4.75.89,9.21,2.97,12.97,6.09,3.69,3.06,6.54,6.97,8.29,11.38.28.7,1.05,1.05,1.76.81.76-.26,1.14-1.11.84-1.85-1.93-4.84-5.06-9.13-9.1-12.49Zm-16.51,1.77l-16.41-7.6,16.41-7.6v15.21Z"/>
  <path class="cls-3" d="m55.3,20.36c.49,0,.95-.25,1.21-.66.27-.42.3-.93.09-1.38L48.51.83c-.24-.51-.74-.83-1.3-.83s-1.07.32-1.3.83l-8.1,17.48c-.21.45-.17.96.09,1.38.27.42.72.66,1.21.66h6.01v30.05c0,.77.63,1.4,1.4,1.4s1.4-.63,1.4-1.4v-30.05h7.38ZM47.2,2.19l7.6,16.41h-15.21l7.6-16.41Z"/>
  <path class="cls-2" d="m91.22,39.78l-17.48-8.1c-.45-.21-.96-.17-1.38.09s-.66.72-.66,1.21v7.64c-3.21.81-6.27,2.11-9.08,3.9-2.92,1.85-5.51,4.16-7.68,6.86-2.2,2.72-3.91,5.77-5.08,9.04-1.22,3.39-1.84,6.95-1.84,10.58v17.61c0,.77.63,1.4,1.4,1.4s1.4-.63,1.4-1.4v-17.61c0-3.3.56-6.54,1.67-9.63,1.07-2.98,2.63-5.75,4.63-8.23,3.74-4.65,8.89-8.03,14.58-9.62v5.66c0,.49.25.95.66,1.21.24.15.5.23.77.23.21,0,.41-.04.61-.13l17.48-8.1c.51-.24.83-.74.83-1.3s-.32-1.07-.83-1.3Zm-17.77,8.91v-15.21l16.41,7.6-16.41,7.6Z"/>
</svg>