<?xml version="1.0" encoding="UTF-8"?>
<svg id="Layer_1" data-name="Layer 1" xmlns="http://www.w3.org/2000/svg" xmlns:xlink="http://www.w3.org/1999/xlink" viewBox="0 0 53.05 89.99">
  <defs>
    <style>
      .cls-1 {
        fill: none;
      }

      .cls-2 {
        fill: url(#linear-gradient);
      }

      .cls-3 {
        clip-path: url(#clippath);
      }

      .cls-4 {
        fill: url(#linear-gradient-3);
      }

      .cls-5 {
        fill: url(#linear-gradient-4);
      }

      .cls-6 {
        fill: url(#linear-gradient-2);
      }

      .cls-7 {
        fill: url(#linear-gradient-5);
      }
    </style>
    <linearGradient id="linear-gradient" x1="0" y1="45" x2="53.05" y2="45" gradientUnits="userSpaceOnUse">
      <stop offset=".25" stop-color="#0078a6"/>
      <stop offset="1" stop-color="#16429e"/>
    </linearGradient>
    <linearGradient id="linear-gradient-2" x1="23.48" y1="83.07" x2="29.57" y2="83.07" xlink:href="#linear-gradient"/>
    <linearGradient id="linear-gradient-3" x1="17.34" y1="6.46" x2="35.71" y2="6.46" xlink:href="#linear-gradient"/>
    <linearGradient id="linear-gradient-4" x1="16.82" y1="44.95" x2="36.23" y2="44.95" xlink:href="#linear-gradient"/>
    <linearGradient id="linear-gradient-5" x1="24.2" y1="49.49" x2="28.85" y2="49.49" xlink:href="#linear-gradient"/>
    <clipPath id="clippath">
      <rect class="cls-1" x="-888.24" y="-810.08" width="490.78" height="894.9"/>
    </clipPath>
  </defs>
  <g>
    <path class="cls-2" d="m51.18,0H1.87C.84,0,0,.84,0,1.87v86.26c0,1.03.84,1.87,1.87,1.87h49.32c1.03,0,1.87-.84,1.87-1.87V1.87c0-1.03-.84-1.87-1.87-1.87ZM2.67,12.74h47.71v63.31H2.67V12.74ZM50.38,2.67v7.41H2.67V2.67h47.71ZM2.67,87.33v-8.61h47.71v8.61H2.67Z"/>
    <path class="cls-6" d="m26.52,80.02c-1.68,0-3.05,1.37-3.05,3.05s1.37,3.05,3.05,3.05,3.05-1.37,3.05-3.05-1.37-3.05-3.05-3.05Zm0,5.43c-1.31,0-2.38-1.07-2.38-2.38s1.07-2.38,2.38-2.38,2.38,1.07,2.38,2.38-1.07,2.38-2.38,2.38Z"/>
    <path class="cls-4" d="m18.95,8.06h15.16c.88,0,1.6-.72,1.6-1.6s-.72-1.6-1.6-1.6h-15.16c-.88,0-1.6.72-1.6,1.6s.72,1.6,1.6,1.6Zm0-2.54h15.16c.52,0,.94.42.94.94s-.42.94-.94.94h-15.16c-.52,0-.94-.42-.94-.94s.42-.94.94-.94Z"/>
    <path class="cls-5" d="m34.87,41.57h-2.3v-3.21c0-3.23-2.63-5.87-5.87-5.87h-.36c-3.23,0-5.87,2.63-5.87,5.87v3.21h-2.3c-.75,0-1.37.61-1.37,1.37v13.1c0,.75.61,1.37,1.37,1.37h16.69c.75,0,1.37-.61,1.37-1.37v-13.1c0-.75-.61-1.37-1.37-1.37Zm-12.72-3.21c0-2.32,1.88-4.2,4.2-4.2h.36c2.32,0,4.2,1.88,4.2,4.2v3.21h-8.75v-3.21Zm12.42,17.38h-16.09v-12.5h16.09v12.5Z"/>
    <path class="cls-7" d="m25.35,49.42v3.24c0,.67.53,1.22,1.17,1.22s1.17-.55,1.17-1.22v-3.24c.71-.42,1.15-1.18,1.15-2,0-1.28-1.04-2.32-2.32-2.32s-2.32,1.04-2.32,2.32c0,.83.44,1.59,1.15,2Zm1.17-3.66c.91,0,1.65.74,1.65,1.66,0,.61-.34,1.17-.88,1.46l-.27.14v3.64c0,.31-.23.56-.5.56s-.5-.25-.5-.56v-3.64l-.27-.14c-.54-.29-.88-.85-.88-1.46,0-.91.74-1.66,1.65-1.66Z"/>
  </g>
  <g class="cls-3">
    <image width="1920" height="1080" transform="translate(-1413.42 -810.08) scale(.85)" xlink:href="C-PROT WEB/Fd Series Hd Outputs 1.png"/>
  </g>
</svg>