<?xml version="1.0" encoding="UTF-8"?>
<svg id="Layer_1" data-name="Layer 1" xmlns="http://www.w3.org/2000/svg" viewBox="0 0 31.79 31.83">
  <defs>
    <style>
      .cls-1 {
        fill: #007b9f;
      }
    </style>
  </defs>
  <path class="cls-1" d="m26.6,17.63c3.43-3.44,3.43-9-.02-12.44-3.43-3.42-9.01-3.42-12.44.02-3.43,3.43-3.42,9.01.02,12.44,3.43,3.42,9.01,3.42,12.44-.02Zm-11.75-.68c-3.05-3.04-3.06-8-.01-11.05,3.04-3.05,8-3.06,11.05-.01,3.05,3.04,3.07,7.99.01,11.05-3.04,3.05-8,3.06-11.05.01Z"/>
  <path class="cls-1" d="m9.7,25.24c.45-.45.66-1.08.58-1.7l3.09-3.1c2.12,1.65,4.76,2.5,7.47,2.39,2.88-.12,5.58-1.3,7.62-3.35,4.45-4.46,4.44-11.71-.02-16.16-4.46-4.45-11.71-4.44-16.16.02-2.04,2.04-3.22,4.75-3.33,7.63-.1,2.71.75,5.34,2.41,7.46l-3.09,3.1c-.62-.08-1.25.13-1.7.58L.59,28.11c-.79.8-.79,2.09,0,2.88l.24.24c.8.79,2.09.79,2.88,0l5.98-5.99Zm-.44-3.3s0,0,0,0l3.11-3.12c.11-.11.16-.26.14-.41-.01-.09-.05-.18-.11-.25-3.48-4.1-3.22-10.3.58-14.11C17.04-.03,23.67-.04,27.74,4.03c4.08,4.07,4.08,10.69.02,14.77-3.8,3.81-10,4.08-14.11.62-.2-.16-.48-.15-.66.03l-3.11,3.12s0,0,0,0c-.05-.07-.11-.14-.17-.2l-.24-.24c-.06-.06-.13-.12-.2-.17ZM1.53,30.54l-.24-.24c-.41-.41-.41-1.08,0-1.5l5.98-5.99c.27-.27.67-.38,1.04-.27.17.05.33.14.46.27l.24.24c.13.13.22.29.27.46.01.05.02.1.03.15.04.32-.07.65-.3.89l-5.98,5.99c-.41.41-1.08.42-1.5,0Z"/>
</svg>