<?xml version="1.0" encoding="UTF-8"?>
<svg id="Layer_1" data-name="Layer 1" xmlns="http://www.w3.org/2000/svg" viewBox="0 0 92.15 111.6">
  <defs>
    <style>
      .cls-1 {
        fill: #fff;
      }
    </style>
  </defs>
  <path class="cls-1" d="m85.24,10.15c-.82-.41-20.35-10.15-39.17-10.15S7.72,9.74,6.9,10.15c-2.11,1.06-3.42,3.19-3.42,5.55v49.45c0,6.01,2.36,12.06,7.01,17.99,3.37,4.31,8,8.6,13.75,12.76.26.19.52.37.78.56v12.82c0,1.27,1.04,2.31,2.31,2.31h37.49c1.27,0,2.31-1.04,2.31-2.31v-12.82c.26-.19.52-.37.78-.56,5.75-4.16,10.38-8.46,13.75-12.76,4.65-5.93,7.01-11.99,7.01-17.99V15.71c0-2.36-1.31-4.49-3.42-5.55Zm-21.51,98.05H28.41v-27.51h35.33v27.51Zm-7.99-30.9h-19.34v-7.13c0-5.12,4.16-9.28,9.28-9.28h.78c5.12,0,9.28,4.16,9.28,9.28v7.13Zm29.53-12.16c0,5.23-2.11,10.58-6.29,15.9-2.94,3.76-6.93,7.52-11.87,11.22v-12.66c0-1.27-1.04-2.31-2.31-2.31h-5.69v-7.13c0-6.99-5.68-12.67-12.67-12.67h-.78c-6.99,0-12.67,5.68-12.67,12.67v7.13h-5.69c-1.27,0-2.31,1.04-2.31,2.31v12.66c-4.93-3.69-8.92-7.46-11.87-11.22-4.17-5.32-6.29-10.67-6.29-15.9V15.71c0-1.08.6-2.04,1.56-2.53.79-.4,19.62-9.79,37.65-9.79s36.85,9.39,37.65,9.79c.96.48,1.56,1.45,1.56,2.53v49.45Z"/>
  <path class="cls-1" d="m43.61,94.25v7.12c0,1.42,1.1,2.58,2.46,2.58s2.46-1.16,2.46-2.58v-7.12c1.55-.89,2.51-2.53,2.51-4.32,0-2.74-2.23-4.97-4.97-4.97s-4.97,2.23-4.97,4.97c0,1.79.96,3.43,2.51,4.32Zm2.46-8.02c2.04,0,3.7,1.66,3.7,3.7,0,1.37-.75,2.62-1.97,3.27l-.54.29v7.88c0,.72-.53,1.31-1.19,1.31s-1.19-.59-1.19-1.31v-7.88l-.54-.29c-1.21-.65-1.97-1.9-1.97-3.27,0-2.04,1.66-3.7,3.7-3.7Z"/>
</svg>