<?xml version="1.0" encoding="UTF-8"?>
<svg id="Layer_1" data-name="Layer 1" xmlns="http://www.w3.org/2000/svg" xmlns:xlink="http://www.w3.org/1999/xlink" viewBox="0 0 86.08 103.52">
  <defs>
    <style>
      .cls-1 {
        fill: url(#linear-gradient);
      }

      .cls-2 {
        fill: url(#linear-gradient-3);
      }

      .cls-3 {
        fill: url(#linear-gradient-4);
      }

      .cls-4 {
        fill: url(#linear-gradient-6);
      }

      .cls-5 {
        fill: url(#linear-gradient-7);
      }

      .cls-6 {
        fill: url(#linear-gradient-5);
      }

      .cls-7 {
        fill: #fff;
        stroke: url(#linear-gradient-2);
        stroke-miterlimit: 10;
      }
    </style>
    <linearGradient id="linear-gradient" x1="3.66" y1="51.76" x2="86.08" y2="51.76" gradientUnits="userSpaceOnUse">
      <stop offset="0" stop-color="#007ab2"/>
      <stop offset="1" stop-color="#00cbcb"/>
    </linearGradient>
    <linearGradient id="linear-gradient-2" x1="-.5" x2="82.93" xlink:href="#linear-gradient"/>
    <linearGradient id="linear-gradient-3" x1="-3059.99" y1="-1689.6" x2="-3031.1" y2="-1689.6" gradientTransform="translate(-3004.33 -1630.82) rotate(-180)" xlink:href="#linear-gradient"/>
    <linearGradient id="linear-gradient-4" x1="-3045.23" y1="-1659.94" x2="-3042.71" y2="-1659.94" gradientTransform="translate(-3004.33 -1630.82) rotate(-180)" xlink:href="#linear-gradient"/>
    <linearGradient id="linear-gradient-5" x1="-3049.09" y1="-1658.46" x2="-3046.56" y2="-1658.46" gradientTransform="translate(-3004.33 -1630.82) rotate(-180)" xlink:href="#linear-gradient"/>
    <linearGradient id="linear-gradient-6" x1="-3045.23" y1="-1667.68" x2="-3042.71" y2="-1667.68" gradientTransform="translate(-3004.33 -1630.82) rotate(-180)" xlink:href="#linear-gradient"/>
    <linearGradient id="linear-gradient-7" x1="-3045.23" y1="-1655.65" x2="-3042.71" y2="-1655.65" gradientTransform="translate(-3004.33 -1630.82) rotate(-180)" xlink:href="#linear-gradient"/>
  </defs>
  <g>
    <path class="cls-1" d="m73.81,4.63c-23.68-8-45.04-4.04-57.7.05C8.91,7,4.03,13.7,3.98,21.26l-.32,42.84c-.02,2.56.51,5.11,1.59,7.43,2.91,6.27,10.75,18.22,31.04,29.73,5.32,3.02,11.86,3.02,17.17,0,20.29-11.51,28.13-23.46,31.04-29.73,1.08-2.33,1.61-4.87,1.59-7.43l-.32-42.95c-.06-7.49-4.86-14.13-11.95-16.52Z"/>
    <path class="cls-7" d="m70.15,4.63c-23.68-8-45.04-4.04-57.7.05C5.25,7,.37,13.7.32,21.26L0,64.1c-.02,2.56.51,5.11,1.59,7.43,2.91,6.27,10.75,18.22,31.04,29.73,5.32,3.02,11.86,3.02,17.17,0,20.29-11.51,28.13-23.46,31.04-29.73,1.08-2.33,1.61-4.87,1.59-7.43l-.32-42.95c-.06-7.49-4.86-14.13-11.95-16.52Z"/>
  </g>
  <g>
    <path class="cls-2" d="m35.84,39.06h1c.42,0,.76.34.76.76v9.38c0,.42-.34.76-.76.76h-5.36c-.56,0-.93.58-.69,1.08l9.74,21.02c.27.59,1.11.59,1.38,0l9.74-21.02c.23-.51-.13-1.08-.69-1.08h-5.34c-.42,0-.76-.34-.76-.76v-9.38c0-.42.34-.76.76-.76h1c.42,0,.76.34.76.76v6.86c0,.42.34.76.76.76h6.76c.56,0,.93.58.69,1.08l-13.68,29.54c-.27.59-1.11.59-1.38,0l-13.68-29.54c-.23-.51.13-1.08.69-1.08h6.79c.42,0,.76-.34.76-.76v-6.86c0-.42.34-.76.76-.76Z"/>
    <rect class="cls-3" x="38.38" y="27.59" width="2.52" height="3.05" rx="1.26" ry="1.26"/>
    <rect class="cls-6" x="42.23" y="22.85" width="2.52" height="9.58" rx="1.26" ry="1.26"/>
    <rect class="cls-4" x="38.38" y="32.07" width="2.52" height="9.58" rx="1.26" ry="1.26"/>
    <rect class="cls-5" x="38.38" y="23.31" width="2.52" height="3.05" rx="1.26" ry="1.26"/>
  </g>
</svg>