<?xml version="1.0" encoding="UTF-8"?>
<svg id="Layer_1" data-name="Layer 1" xmlns="http://www.w3.org/2000/svg" viewBox="0 0 38.15 33.4">
  <defs>
    <style>
      .cls-1 {
        fill: #007b9f;
      }
    </style>
  </defs>
  <path class="cls-1" d="m37.44,33.4H.71c-.36,0-.66-.29-.66-.66s.29-.66.66-.66h36.73c.36,0,.66.29.66.66s-.29.66-.66.66Z"/>
  <path class="cls-1" d="m4.57,33.4c-.36,0-.66-.29-.66-.66v-14.17c0-.36.29-.66.66-.66s.66.29.66.66v14.17c0,.36-.29.66-.66.66Z"/>
  <path class="cls-1" d="m13.63,33.4c-.36,0-.66-.29-.66-.66v-14.17c0-.36.29-.66.66-.66s.66.29.66.66v14.17c0,.36-.29.66-.66.66Z"/>
  <path class="cls-1" d="m33.58,33.4c-.36,0-.66-.29-.66-.66v-14.17c0-.36.29-.66.66-.66s.66.29.66.66v14.17c0,.36-.29.66-.66.66Z"/>
  <path class="cls-1" d="m33.39,15.71c-1.39,0-2.69-.61-3.58-1.63-.89,1.02-2.19,1.63-3.58,1.63s-2.69-.61-3.58-1.63c-.89,1.02-2.19,1.63-3.58,1.63s-2.69-.61-3.58-1.63c-.89,1.02-2.2,1.63-3.58,1.63s-2.69-.61-3.58-1.63c-.89,1.02-2.19,1.63-3.58,1.63-2.62,0-4.76-2.13-4.76-4.76,0-.28.02-.57.07-.84,0-.05.02-.1.04-.14L4.23.4c.1-.24.34-.4.6-.4h28.49c.26,0,.5.16.6.4l4.11,9.58s.03.09.04.14c.05.27.07.56.07.84,0,2.62-2.13,4.76-4.76,4.76Zm-3.58-3.41h0c.24,0,.46.13.57.34.61,1.09,1.76,1.77,3.01,1.77,1.9,0,3.45-1.55,3.45-3.45,0-.18-.01-.36-.04-.54l-3.91-9.11H5.26L1.35,10.42c-.03.17-.04.36-.04.54,0,1.9,1.55,3.45,3.45,3.45,1.25,0,2.4-.68,3.01-1.77.12-.21.33-.34.57-.34h0c.24,0,.46.13.57.34.61,1.09,1.76,1.77,3.01,1.77s2.4-.68,3.01-1.77c.12-.21.33-.33.57-.33h0c.24,0,.46.13.57.34.61,1.09,1.76,1.77,3.01,1.77s2.4-.68,3.01-1.77c.12-.21.33-.34.57-.34.24,0,.46.13.57.33.61,1.09,1.76,1.77,3.01,1.77s2.4-.68,3.01-1.77c.12-.21.33-.34.57-.34Z"/>
  <path class="cls-1" d="m8.28,13.29s-.07,0-.1,0c-.36-.06-.6-.39-.54-.75l1.82-11.48c.06-.36.39-.6.75-.54.36.06.6.39.54.75l-1.82,11.48c-.05.32-.33.55-.65.55Z"/>
  <path class="cls-1" d="m15.41,13.29s-.02,0-.04,0c-.36-.02-.64-.33-.62-.69l.2-3.71c.14-2.59.27-5.18.41-7.77.02-.36.33-.64.69-.62.36.02.64.33.62.69-.14,2.59-.27,5.18-.41,7.77l-.2,3.71c-.02.35-.31.62-.65.62Z"/>
  <path class="cls-1" d="m22.54,13.29c-.35,0-.64-.27-.65-.62l-.23-4.3c-.13-2.39-.25-4.79-.38-7.18-.02-.36.26-.67.62-.69.36-.02.67.26.69.62.13,2.39.25,4.79.38,7.18l.23,4.3c.02.36-.26.67-.62.69-.01,0-.02,0-.04,0Z"/>
  <path class="cls-1" d="m29.68,13.29c-.32,0-.59-.23-.65-.55l-1.82-11.48c-.06-.36.19-.69.54-.75.36-.06.69.19.75.54l1.82,11.48c.06.36-.19.69-.54.75-.03,0-.07,0-.1,0Z"/>
  <path class="cls-1" d="m10.61,26.5c-.36,0-.66-.29-.66-.66v-2.68c0-.36.29-.66.66-.66s.66.29.66.66v2.68c0,.36-.29.66-.66.66Z"/>
  <path class="cls-1" d="m21.11,28.4c-.17,0-.33-.06-.46-.19-.26-.25-.26-.67,0-.93l8.28-8.4c.25-.26.67-.26.93,0s.26.67,0,.93l-8.28,8.4c-.13.13-.3.2-.47.2Z"/>
  <path class="cls-1" d="m24.03,30.72c-.17,0-.33-.06-.46-.19-.26-.25-.26-.67,0-.93l5.6-5.68c.25-.26.67-.26.93,0,.26.25.26.67,0,.93l-5.6,5.68c-.13.13-.3.2-.47.2Z"/>
</svg>