<?xml version="1.0" encoding="UTF-8"?>
<svg id="Layer_1" data-name="Layer 1" xmlns="http://www.w3.org/2000/svg" xmlns:xlink="http://www.w3.org/1999/xlink" viewBox="0 0 105.31 133.26">
  <defs>
    <style>
      .cls-1 {
        fill: url(#linear-gradient);
      }

      .cls-2 {
        fill: url(#linear-gradient-2);
      }
    </style>
    <linearGradient id="linear-gradient" x1="28.92" y1="61.15" x2="76.4" y2="61.15" gradientUnits="userSpaceOnUse">
      <stop offset="0" stop-color="#007ab2"/>
      <stop offset="1" stop-color="#00c5c5"/>
    </linearGradient>
    <linearGradient id="linear-gradient-2" x1="0" y1="66.63" x2="105.31" y2="66.63" xlink:href="#linear-gradient"/>
  </defs>
  <path class="cls-1" d="m61.13,66.37c5.35-2.98,8.98-8.7,8.98-15.25,0-9.62-7.83-17.45-17.45-17.45s-17.45,7.83-17.45,17.45c0,6.55,3.63,12.26,8.98,15.25-8.32,3.18-14.43,10.88-15.26,20.09-.11,1.17.84,2.17,2.01,2.17,1.04,0,1.9-.8,2-1.84.93-10.06,9.42-17.96,19.72-17.96s18.79,7.9,19.72,17.96c.1,1.04.95,1.84,2,1.84,1.17,0,2.12-1,2.01-2.17-.83-9.21-6.94-16.92-15.26-20.09Zm-21.92-15.25c0-7.42,6.04-13.46,13.46-13.46s13.46,6.04,13.46,13.46-6.04,13.46-13.46,13.46-13.46-6.04-13.46-13.46Z"/>
  <path class="cls-2" d="m52.66,133.26c-1.08,0-2.12-.22-3.11-.66-.49-.22-12.09-5.44-23.88-13.98-7.12-5.15-12.84-10.46-17.01-15.79C2.91,95.5,0,88.02,0,80.61V19.36C0,16.47,1.6,13.87,4.18,12.57,5.2,12.05,29.37,0,52.66,0s47.46,12.05,48.48,12.57c2.58,1.3,4.18,3.9,4.18,6.79v61.25c0,7.42-2.91,14.89-8.66,22.23-4.17,5.33-9.9,10.64-17.01,15.79-11.81,8.54-23.39,13.76-23.88,13.98-.98.44-2.03.66-3.1.66Zm0-129.27C30.31,4,6.96,15.64,5.98,16.14c-1.22.62-1.98,1.85-1.98,3.22v61.25c0,6.5,2.63,13.15,7.81,19.76,3.94,5.03,9.4,10.09,16.21,15.02,11.46,8.3,22.69,13.35,23.17,13.57.47.21.96.32,1.47.32s1.01-.11,1.47-.31c.47-.21,11.7-5.26,23.17-13.57,6.81-4.93,12.27-9.99,16.21-15.02,5.18-6.61,7.81-13.26,7.81-19.76V19.36c0-1.37-.76-2.6-1.98-3.22-.98-.5-24.33-12.14-46.68-12.14Z"/>
</svg>